<svg xmlns="http://www.w3.org/2000/svg" xmlns:xlink="http://www.w3.org/1999/xlink" width="811" height="435.582" viewBox="0 0 811 435.582"><defs><style>.a,.b,.q{fill:#e4eef9;}.a{opacity:0.4;}.b{opacity:0.5;}.c{fill:#e33351;}.d{fill:#f2beae;}.e{fill:#cb9eae;}.f{fill:#fcd2c5;}.g{fill:#313640;}.h{fill:#4074e8;}.i{fill:url(#a);}.j{fill:#1a2c5d;}.k{fill:#1d326b;}.l{fill:#0d4ee0;}.m{fill:#fe985d;}.n{fill:#f55b4f;}.o{fill:#d36b2f;}.p{fill:#f28a4e;}.r{fill:none;stroke:#d9d9d9;stroke-miterlimit:10;}.s{fill:#98b0c4;}.t{fill:#afc4d5;}.u{fill:#e94538;}.v{fill:#d9d9d9;}</style><linearGradient id="a" x1="0.493" y1="1.236" x2="0.514" y2="-0.278" gradientUnits="objectBoundingBox"><stop offset="0" stop-color="#001462"/><stop offset="0.069" stop-color="#071e71"/><stop offset="0.252" stop-color="#183594"/><stop offset="0.437" stop-color="#2647b0"/><stop offset="0.623" stop-color="#3054c4"/><stop offset="0.81" stop-color="#365cd0"/><stop offset="1" stop-color="#385fd4"/></linearGradient></defs><g transform="translate(-179.787 -218.972)"><g transform="translate(178.787 171.972)"><path class="a" d="M343.37,340.738l-.932.427-1.7.823c-1.11.544-2.105,1.092-3.145,1.644q-3.008,1.67-5.828,3.445a126.565,126.565,0,0,0-10.742,7.584,145.67,145.67,0,0,0-18.832,17.618,162.042,162.042,0,0,0-15.48,20.268,180.453,180.453,0,0,0-12.064,22.174,196.269,196.269,0,0,0-8.838,23.351c-1.114,3.974-2.364,7.929-3.238,11.941l-1.413,6L260,462.044a251.98,251.98,0,0,0-3.683,29.767V454.07a184.563,184.563,0,0,1,7.383-27.409c5.384-16.093,13.336-34.727,22.166-54.885,7.239-16.484,13.421-30.984,19.15-42.749,5.7-11.746,11.392-20.424,16.039-25.059-4.592,4.59-13.232,10.54-22.558,20.515a145.176,145.176,0,0,0-27.164,40.857,194.08,194.08,0,0,0-15.016,56.108V340.063a73.242,73.242,0,0,1,7.381-16.222c5.371-9.23,12.792-19.453,20.243-31.2A203.878,203.878,0,0,0,297.857,266c3.429-7.808,6.218-13.949,8.522-17.371-2.321,3.445-8.145,7.013-14.821,12.527a95.96,95.96,0,0,0-21.052,23A101.021,101.021,0,0,0,256.321,320.6V289.429c2.192-14.368,6.818-36.028,6.818-61.083,0-26.834-7.949-46.9-7.949-56.374,0,9.478-7.948,29.54-7.948,56.374,0,25.063,4.625,46.727,6.818,61.1v33.95a217.119,217.119,0,0,0-16.31-61.523,171.463,171.463,0,0,0-28.7-44.679c-9.783-11.052-18.739-18.025-24.051-22.655,5.4,4.71,11.322,14.324,17.454,27.086,6.186,12.785,12.817,28.671,20.732,46.613,9.505,22.02,17.839,42.364,23.451,59.921a195.134,195.134,0,0,1,7.425,30.086v52.4q-1.036-9.748-2.732-19.324a313.58,313.58,0,0,0-10.5-41.991,361.054,361.054,0,0,0-15.613-40.136c-2.984-6.553-6.29-13.018-9.78-19.455a187.1,187.1,0,0,0-12.273-19.4c5.708,7.7,6.489,15.727,5.795,23.44a63.689,63.689,0,0,1-2.436,11.22c-1.152,3.614-2.491,7.051-3.778,10.242-1.9,4.613-1.6,8.1-.047,11,1.476,2.935,4.121,5.333,6.862,7.622,5.32,4.6,10.958,8.945,7.025,15.32-3.816,6.321-8.482,12.256-8.107,19.131.136,3.462,1.415,7.188,4.7,11.518,3.075,4.38,8.262,9.319,15.609,15.742A88.1,88.1,0,0,1,240.9,408.425a109.926,109.926,0,0,1,8.393,12.861c2.143,3.97,3.6,7.47,4.642,9.939l.125.3v59.923c-.216-1.342-6.824-39.12-29.288-60.016-21.107-19.633-40.805-25.878-45.984-28.751,5.221,2.882,34.939,39.552,44.645,52.185,14.98,19.489,30.623,43.885,30.623,70.884l0,.036v81.763h2.262V504.268a36.737,36.737,0,0,1,1.851-6.913,46.169,46.169,0,0,1,6.2-10.934,69.472,69.472,0,0,1,8.376-8.885c3.043-2.632,6.133-4.966,9.035-7.083,4.276-3.026,6.057-6.316,6.593-9.855.665-3.494-.152-7.311-.714-11.031-.318-1.871-.663-3.737-.894-5.544a22.421,22.421,0,0,1-.006-5.1,8.061,8.061,0,0,1,5.549-7.131c7.218-2.7,14.681-4.215,19.309-9.6a16.948,16.948,0,0,0,3.067-4.863,31.5,31.5,0,0,0,2.148-6.911c1.116-5.5,1.686-12.7,2.584-23.017a72.813,72.813,0,0,1,12.409-33.559c5.807-8.555,11.8-13.291,12.811-13.657Z" transform="translate(-177.787 -124.972)"/><path class="b" d="M501.637,348.674l.735.336,1.332.645c.873.427,1.654.859,2.471,1.293q2.367,1.311,4.581,2.706a100.494,100.494,0,0,1,8.444,5.961,114.559,114.559,0,0,1,14.8,13.85,127.461,127.461,0,0,1,12.167,15.928,141.991,141.991,0,0,1,9.482,17.43,153.883,153.883,0,0,1,6.945,18.351c.877,3.123,1.857,6.234,2.546,9.385l1.112,4.719.909,4.738a197.926,197.926,0,0,1,2.9,23.4V437.748a145.006,145.006,0,0,0-5.8-21.542c-4.232-12.648-10.481-27.3-17.422-43.136-5.689-12.957-10.547-24.352-15.05-33.6-4.482-9.232-8.954-16.055-12.606-19.7,3.609,3.608,10.4,8.284,17.729,16.125a114.149,114.149,0,0,1,21.35,32.111,152.613,152.613,0,0,1,11.8,44.1V348.143a57.528,57.528,0,0,0-5.8-12.749c-4.221-7.254-10.054-15.289-15.912-24.519a160.4,160.4,0,0,1-10.933-20.939c-2.694-6.139-4.886-10.963-6.7-13.653,1.826,2.706,6.4,5.512,11.648,9.846A75.351,75.351,0,0,1,558.906,304.2a79.406,79.406,0,0,1,11.148,28.639v-24.5c-1.724-11.293-5.358-28.317-5.358-48.007,0-21.091,6.248-36.86,6.248-44.309,0,7.449,6.248,23.218,6.248,44.309,0,19.7-3.636,36.725-5.36,48.018v26.684a170.6,170.6,0,0,1,12.82-48.354,134.757,134.757,0,0,1,22.558-35.116c7.688-8.686,14.73-14.167,18.9-17.8-4.244,3.7-8.9,11.258-13.72,21.288-4.861,10.047-10.073,22.534-16.3,36.636-7.468,17.307-14.018,33.3-18.43,47.1a153.512,153.512,0,0,0-5.837,23.645v41.187q.816-7.662,2.148-15.187a246.422,246.422,0,0,1,8.253-33A284.017,284.017,0,0,1,594.5,323.88c2.347-5.15,4.943-10.229,7.688-15.289a147.012,147.012,0,0,1,9.645-15.253c-4.486,6.052-5.1,12.362-4.554,18.425a49.966,49.966,0,0,0,1.915,8.818c.9,2.84,1.957,5.54,2.969,8.05,1.493,3.625,1.26,6.363.036,8.644a20.252,20.252,0,0,1-5.394,5.991c-4.179,3.618-8.611,7.03-5.519,12.043,3,4.966,6.665,9.63,6.373,15.037-.108,2.719-1.112,5.648-3.7,9.05-2.417,3.443-6.494,7.324-12.269,12.373a69.246,69.246,0,0,0-9.52,10.1,86.518,86.518,0,0,0-6.6,10.108c-1.686,3.121-2.827,5.872-3.651,7.813-.034.085-.064.159-.1.239v47.1c.169-1.054,5.365-30.747,23.019-47.169,16.589-15.431,32.073-20.34,36.142-22.6-4.1,2.266-27.461,31.085-35.089,41.014-11.773,15.318-24.068,34.492-24.068,55.714l0,.027v64.261h-1.777V477.2a28.86,28.86,0,0,0-1.455-5.434,36.257,36.257,0,0,0-4.875-8.593,54.39,54.39,0,0,0-6.583-6.983c-2.393-2.07-4.82-3.9-7.1-5.567-3.359-2.379-4.759-4.964-5.18-7.745-.523-2.747.121-5.747.559-8.672.25-1.469.523-2.935.7-4.355a17.615,17.615,0,0,0,.006-4.008,6.336,6.336,0,0,0-4.363-5.605c-5.672-2.122-11.538-3.312-15.175-7.542a13.373,13.373,0,0,1-2.41-3.822,24.744,24.744,0,0,1-1.688-5.432c-.877-4.321-1.324-9.984-2.031-18.09a57.228,57.228,0,0,0-9.751-26.377c-4.566-6.723-9.278-10.445-10.07-10.733Z" transform="translate(181.007 -122.798)"/></g><g transform="translate(284.631 273.987)"><g transform="translate(155.448 31.658)"><path class="c" d="M319.317,467.062c3.473,14.662,8.582,31.123,13.883,46.651h87.926c1.98-6.384,3.952-13.242,5.822-20.522,10.8-42.036-.568-78.392-10.8-94.866s-19.046-36.073-3.437-60.1,17.083-42.721,17.083-42.721c-2.275-9.089-9.382-12.214-27.84-21.015,0,0-1.1-.366-2.813-.946-3.91,15.864-12.159,28.478-26.772,31.049-19.042,3.352-36.229-8.253-44.923-28.626-8.383,2.474-17.718,5.108-22.166,7.609,0,0,23.309,50.557,27.755,79.145S308.69,422.185,319.317,467.062Z" transform="translate(-298.674 -192.283)"/><g transform="translate(28.772 48.973)"><path class="d" d="M360.668,321.624c14.613-2.571,22.863-15.185,26.772-31.049-6.116-2.067-20.5-7-24.5-9-5.117-2.556-3.7-23.29-3.7-23.29l-27.02,7.7v20.132c0,1.888-7.72,4.294-16.481,6.877C324.44,313.372,341.627,324.974,360.668,321.624Z" transform="translate(-315.746 -258.286)"/><path class="e" d="M350.547,258.444l-27.018,7.7v17.109c11.418,6.162,24.226,17.6,28.579,38.5,14.522-2.628,22.736-15.208,26.632-31.02-6.116-2.067-20.5-7-24.5-9C349.126,279.177,350.547,258.444,350.547,258.444Z" transform="translate(-307.046 -258.11)"/></g><path class="f" d="M383.276,318.561c-12.057,3.684-23.2,7.995-29.217,7.995-11.941,0-29.566-16.757-37.9-6.511s-9.573,17.022-3.048,21.565,27.3-1.7,37.254.284c4.439.889,19.586,1.659,35.676,1.411C387.409,336.914,386.97,324.973,383.276,318.561Z" transform="translate(-293.578 -144.088)"/><path class="f" d="M375.419,285.6c-2.8-11.2-25.87,9.374-20.183,28.118,4.875,16.076,3.1,37.675,3.1,37.675l22.583,22.826C388.6,364.844,377.693,294.687,375.419,285.6Z" transform="translate(-243.834 -182.376)"/><path class="f" d="M377.236,315.213c-8.732-1.276-21.236,1.993-33.081,5.614,3.694,6.412,3.893,18.092,2.522,24.483,19.961-.307,41.377-2.186,45.626-7.374C392.3,337.935,402.537,318.9,377.236,315.213Z" transform="translate(-255.216 -146.093)"/><path class="f" d="M322.024,245.961c-4.742,9.216-4.215,40.544,8.959,43.441,11.509,2.529,17.919-8.689,17.919-8.689v-20.78a15.2,15.2,0,0,1-7.379-11.34c-.709-6.367-4.479-7.042-4.479-7.042S329.138,246.225,322.024,245.961Z" transform="translate(-283.006 -227.99)"/><path class="f" d="M320.693,358.248c-5.947-11.966-9.9-27.052-13.383-35.567-6.572-16.065-7.641-38.466,1.457-43.578,16.772-8.583,23.879,20.928,25.014,29.494s3.412,28.584,9.666,35.757Z" transform="translate(-302.161 -187.808)"/><path class="g" d="M376.883,301.971c-11.369-7.1,1.3-46.26-17.763-61.326-15.7-12.4-40.735-3.077-40.735,20.35v56.148c6.208-1.938,10.894-3.722,10.894-5.193V295.458c-10.464-6.655-10.681-33.711-6.237-42.345,7.114.264,15.02-4.41,15.02-4.41s3.77.675,4.479,7.042a15.2,15.2,0,0,0,7.379,11.34v20.78c0,19.51,4.7,40.844,15.831,42.027S378.777,316.4,387.3,317.351C387.3,317.351,388.25,309.069,376.883,301.971Z" transform="translate(-284.024 -235.143)"/><path class="f" d="M327.17,302.308c-6.21,8.481-15.935,15.892-16.259,28.319,5.282,10.614,12.131,18.77,21.617,17.7,13.986-1.574,18.824-18.016,20.478-33.066C343.666,315.982,331.766,308.595,327.17,302.308Z" transform="translate(-292.379 -160.181)"/><path class="f" d="M339.7,266.181c-2.666,1.213-12.121,9.446-12.121,11.505s4.242,17.561,4.242,22.284-4.333,25.3-10.022,37.482a34.887,34.887,0,0,1-3.352,5.542c4.6,6.287,16.616,13.748,25.955,13.031a170.7,170.7,0,0,0,.86-18.125s.955-34.426,2.518-36.873c1.425-2.235,1.415-5.917,1.415-9.055v-6.38s2.171-.138,2.3-3.866c0-.11,0-.224,0-.343C351.5,277.324,342.37,264.97,339.7,266.181Z" transform="translate(-283.797 -200.594)"/></g><g transform="translate(222.966 17.22)"><g transform="translate(217.154)"><path class="h" d="M436.6,273.335V373.823s33.566,1.022,32.541,0,0-46.687,0-46.687Z" transform="translate(-436.546 -178.078)"/><path class="i" d="M481.064,329.281c2.774,18.808,1.038,40.239,0,48.335s-24.906,80.462-24.906,80.462h58.187l16.022-76.663L509.1,322.848Z" transform="translate(-414.682 -122.818)"/><path class="j" d="M483.576,329.281c2.774,18.808,1.038,40.239,0,48.335s-29.665,81.071-29.665,81.071h62.946l16.022-77.273-21.264-58.567Z" transform="translate(-417.194 -122.818)"/><path class="k" d="M531.69,316.464c8.571,26.845,46.983,35.525,36.385,78.883-7.648,31.3-23.252,70.465-23.252,70.465H472.2s22.776-68.235,22.776-77.273-14.3-55.479-14.3-55.479Z" transform="translate(-396.746 -129.943)"/><path class="l" d="M448.37,262.593c-8.571,4.082-16.4,22.261-8.571,39.327s8.944,14.017,11.913,27.414,1.8,20.818,26.338,37.514S501.843,388,502.957,396.53s70.183,6.678,69.069-25.23.648-68.753-19.914-86.133S448.37,262.593,448.37,262.593Z" transform="translate(-436.574 -190.067)"/><path class="m" d="M438.1,243.922s-8.623,81.06,0,95.776,34.8-18.658,34.492-36.913-15.736-58.863-15.736-58.863Z" transform="translate(-434.872 -210.906)"/><path class="f" d="M449.638,281.7s4.634,7.5,6.205,10.716-5.4,17.464-3.1,29.672,17.415,10.128,20.793,0c1.019-3.051,3.723-24.709,3.723-24.709V261.564Z" transform="translate(-421.971 -191.216)"/><path class="e" d="M455.843,292.419c9.778-10.947,19.9,35.406,3.872,37.757.038.011.078.013.116.023l2.3.254a12.253,12.253,0,0,0,11.407-8.363c1.019-3.051,3.723-24.709,3.723-24.709V261.564L449.638,281.7S454.272,289.2,455.843,292.419Z" transform="translate(-421.971 -191.216)"/><path class="f" d="M440.919,256.464c-4.757,29.466.474,56.628,14.694,59.847s34.6-12.322,34.6-26.03,13.747-49.425-1.9-57.578S443.95,237.688,440.919,256.464Z" transform="translate(-433.632 -226.179)"/><path class="m" d="M454.113,255.919a125.1,125.1,0,0,1-12.877,9.469c-5.447,3.235-4.113-15.447,6.438-24.227s24.387-16.254,30-11.211c0,0,17.576-4.856,28.234,13.077s11.407,34,14.772,38.485,8.976,7.288,6.358,15.693c0,0,18.7-3.735,21.5,9.156s1.87,17.058,1.87,17.058-5.812-4.541-17.729-8.71c0,0-8.027,6.317-15.694,6.317S493.924,362.6,486.2,351.931s-.112-73.593-.112-73.593S455.676,274.462,454.113,255.919Z" transform="translate(-434.872 -228.319)"/></g><g transform="translate(0 59.125)"><path class="m" d="M399.8,315.349c-35.329,36.754-65.758,148.87-65.758,148.87h50.717l31.7-74.435Z" transform="translate(-334.041 -190.313)"/><path class="n" d="M549.762,335.744c-7.391-8.392-46.759-36-96.955-33-44.26,2.647-80.058,16.306-87.037,26.931-5.1,7.77,6.076,60.226,13.855,81.111a183.02,183.02,0,0,1,11.18,62.168s125.171-.73,125.9,0,15.556-46.141,17.5-69.454S531.777,354.444,549.762,335.744Z" transform="translate(-300.012 -204.637)"/><path class="f" d="M445.9,282.055s.625,38.868,0,50.471-18.625,22.045-25.3,22.335-21.484-9.571-23.807-26.106v-35.1Z" transform="translate(-263.888 -227.472)"/><path class="e" d="M446.139,303.171c-.076-11.264-.235-21.116-.235-21.116l-49.107,11.6v28.781c4.092,17.989,31.249,13.071,37.715-3.976C438.216,308.69,441.384,305.789,446.139,303.171Z" transform="translate(-263.888 -227.472)"/><path class="f" d="M390.7,293.154c1.845,28.478,13.461,56.046,31.868,53.139,22.831-3.606,29.763-38.2,28.86-57.056S439.771,258.6,423.4,258.581C407.831,258.566,389.137,269.043,390.7,293.154Z" transform="translate(-270.808 -253.67)"/><path class="f" d="M426.344,285.184c-1.22,5.68-3.986,9.986-6.176,9.622s-2.974-5.265-1.754-10.942,3.986-9.986,6.176-9.622S427.566,279.506,426.344,285.184Z" transform="translate(-240.364 -236.216)"/><path class="g" d="M392.691,300.2c-3.478-5.316-3.719-7.406-3.463-16.239s7.713-9.141,7.557-12.914,4.661-13.915,24.341-14.732,18.5,8.2,24.591,8.784,15.543,6.833,10.941,29.189c0,0-5.35.512-7.457,11.315a.97.97,0,0,1-1.715.326,14.2,14.2,0,0,1-1.8-4.141c-1.468-5.4-7.358,2.715-8.425-8.052-.762-7.673-19.5,6.408-33.4-6.039,0,0-2.065,2.747-7.987,2.571C392.43,290.163,392.691,300.2,392.691,300.2Z" transform="translate(-272.431 -256.26)"/><g transform="translate(116.072 99.717)"><path class="o" d="M405.672,350.457s1.62,2.069,4.647-2.548,13.377-18.636,16.966-17.252l-.017-.023c-7.281-1.513-19.5-10.968-21.6-25.873v-1.206c-5.79.806-11.341,1.79-16.615,2.905C387.6,314.7,393.78,341.353,405.672,350.457Z" transform="translate(-388.847 -303.194)"/><path class="o" d="M431.68,308.721c-.542,10.091-14.224,19.3-22.172,21.721h0c3.753-1.458,17.547,16.673,19.938,20.668s6.781-1.414,11.149-12.559c3.173-8.092,8.076-22.037,6.019-31.883a141.4,141.4,0,0,0-14.758-3.284C431.814,305.481,431.756,307.311,431.68,308.721Z" transform="translate(-365.749 -303.384)"/></g><path class="p" d="M404.76,308.58v-8.449c-7.338,3.221-14.137,5.942-14.884,10.138-1.468,8.223,5.138,32.12,14.884,40.559,0,0,1.62,2.069,4.649-2.548s13.377-15.187,16.966-13.8l-.017-.023C419.075,332.943,406.855,323.486,404.76,308.58Z" transform="translate(-271.852 -207.298)"/><path class="p" d="M443.952,308.676c-2.031-4.592-8.62-8.32-11.991-9.916-.017,6.24-.093,11.8-.273,15.121-.542,10.091-14.224,19.3-22.172,21.721h0c3.755-1.458,17.549,13.221,19.94,17.216s5.346-.66,10.2-11.607C444.59,330.069,447.267,316.165,443.952,308.676Z" transform="translate(-249.672 -208.828)"/><path class="m" d="M492.843,432.124c0-32.23-9.4-96.825-24.3-113.906,0,0-23.335,12.47-30.716,51.994-2.2,11.808,1.55,45.549,2.522,59.8Z" transform="translate(-218.788 -187.111)"/><path class="m" d="M420.754,412.443h70.805c10.488,0,21.768-8.555,20.183-31.731s-39.537-19.925-52.5-2.116l-39.012,5.953Z" transform="translate(-237.688 -135.699)"/><path class="f" d="M426.521,402.361l3.348-3.138,10.185,3.608a16.491,16.491,0,0,0,5.507.946h20.211s9.564-2.046,9.878-13.325-9.408-14.569-13.639-14.569H439.849a16.2,16.2,0,0,1-3.3-.341l-15.759-3.291a9.724,9.724,0,0,0-6.817,1.083l-8.931,5.127a22.568,22.568,0,0,0-4.725,3.618l-16.206,16.228a3.2,3.2,0,0,0,2.27,5.468h36.561A5.236,5.236,0,0,0,426.521,402.361Z" transform="translate(-279.129 -127.033)"/></g><g transform="translate(133.52 97.374)"><path class="h" d="M552.56,276.116c-15.179-8.765-41.78,16.165-36.057,45.633s-26.668,66.032-26.668,66.032-36.711,14.728-51.448,17.519a56.955,56.955,0,0,1,9.395,22.056c24.108-1.983,58.7-6.881,72.682-18.522,21.13-17.593,43.576-82.468,43.58-103.08C564.05,281.77,552.56,276.116,552.56,276.116Z" transform="translate(-350.914 -274.336)"/><path class="f" d="M480.718,336.681H433.254s-33.895,11.471-34.774,13.433-2.643,13.625,0,16.37,19.809,7.582,24.21,6.7,38.738-13.634,46.661-13.634c2.681,0,12.275-.254,24.6-1.27a56.955,56.955,0,0,0-9.395-22.056A21.874,21.874,0,0,1,480.718,336.681Z" transform="translate(-397.085 -205.262)"/></g></g><path class="m" d="M292.952,334.978s11.894,9.4,24.057,0,3.785-25.458,3.785-25.458l-27.842,14.819Z" transform="translate(-157.008 -120.474)"/><path class="m" d="M313.132,279.915v70.306H290.25V283.763Z" transform="translate(-160.028 -153.514)"/><g transform="translate(34.419 248.413)"><path class="g" d="M295.409,388.334c-2.2,11.732-14.715,28.209-22.674,52h45.473c4.361-28.582,8.3-66.944,2.082-101.043H294.071C296.491,350.784,297.48,377.3,295.409,388.334Z" transform="translate(-214.027 -335.659)"/><path class="g" d="M262.85,385.791s5.263,25.528,8.859,54.544h12.076c7.959-23.791,20.472-40.269,22.674-52,2.071-11.037,1.082-37.55-1.339-49.042H263.934Z" transform="translate(-225.077 -335.659)"/><path class="g" d="M325.058,341.208a24.724,24.724,0,0,0-1-3.633H245.015c1.089,38.013,4.088,75.842,5.888,104.676h52.82c7.959-23.791,20.472-40.269,22.674-52C328.468,379.213,327.479,352.7,325.058,341.208Z" transform="translate(-245.015 -337.575)"/></g><path class="m" d="M314.774,252.3c-46.754-12.536-78.334,8.32-83.519,38.271C226.52,317.93,260.9,402.633,260.9,436.883c0,0,55.419,28.544,106.263,3.633,0,0-7.626-36.329,0-68.5s17.767-50.61,9.154-73.692C368.789,278.154,336.642,258.166,314.774,252.3Z" transform="translate(-226.478 -188.47)"/><path class="f" d="M293.069,235.823S275.423,258,267.976,265.066s6.294,21.527,16.719,27.663c6.885,4.054,21.4,8.553,17.123-4.092,0,0-2.421-7.066,9.306-17.108C311.124,271.528,298.095,232.662,293.069,235.823Z" transform="translate(-187.298 -202.928)"/><path class="e" d="M298.794,267.64s-6.042-18.014-11.483-28.516l-5.748,2.711c-6.7,13.727-7.9,39.592,7.925,42.914C289.488,284.749,287.067,277.683,298.794,267.64Z" transform="translate(-174.968 -199.041)"/><path class="f" d="M287,242.243c1.493-8.456-6.068-9.089-8.44-2.034-2.711,8.064.275,13.651,3.38,11.791,0,0-6.025,18.209,1.561,29.174s17.271,6.752,29.377-5.161c10.409-10.242,17.187-22.756,18.239-27.577,2.745-12.58-10.329-22.754-22.6-22.094C293.513,227.149,287,242.243,287,242.243Z" transform="translate(-174.276 -213.339)"/><path class="l" d="M284.217,249.086c-.472,4.979.343,8.835,3.274,7.14s9.869-11.712,16.193-4.469,11.451,13.983,22.674,12.792c14.5-1.543,17.86-21.148,5.089-24.656,0,0,5.553-6.738-4.318-9.863-9.037-2.863-9.4-1.09-15.723-8.177-3.641-4.082-25.459-1.9-31.408,20.492C280,242.344,284.954,241.328,284.217,249.086Z" transform="translate(-171.489 -220.182)"/><path class="m" d="M269.8,355.6c.464-9.74,6.5-35.015,15-51.16s4.331-36.911-7.23-45.039c-11.483-8.075-27.581-6.642-35.206,4.6-20.505,30.239-14.55,98.224-3.495,121.169,2.2,4.556,7.489,7.516,14.671,9.294C237.973,387.362,253.582,351.9,269.8,355.6Z" transform="translate(-228.763 -182.125)"/><path class="q" d="M276.915,335.846l30.718-37.135a5.286,5.286,0,0,1,5.473-1.727l52.111,14.349a1.686,1.686,0,0,1,.684,2.878l-39.416,35.55a3.422,3.422,0,0,1-3.079.789l-45.13-10.663A2.51,2.51,0,0,1,276.915,335.846Z" transform="translate(-175.581 -134.675)"/><path class="f" d="M357.272,315.3c-1.785-5.1-6.887-8.923-9.865-9.774-2.162-.616-18.235-.336-26.87-.138a18.575,18.575,0,0,0-9.471,2.823c-2.719,1.708-6.11,3.6-7.794,3.6H276.129a94.712,94.712,0,0,0-16.018-9.51c-16.217-3.7-31.826,31.762-16.259,38.866,26.173,6.486,77.834-2.982,99.549-10.4a23.771,23.771,0,0,0,11.968-8.82C356.916,319.719,357.966,317.287,357.272,315.3Z" transform="translate(-219.076 -128.829)"/></g><line class="r" x2="697.689" transform="translate(238.907 627.057)"/><g transform="translate(433.386 510.845)"><path class="s" d="M382.888,395.753h74.37a7.717,7.717,0,0,0,7.722-7.715h0a3.522,3.522,0,0,0-3.522-3.519H382.888a3.522,3.522,0,0,0-3.522,3.519v4.2A3.52,3.52,0,0,0,382.888,395.753Z" transform="translate(-209.161 -273.626)"/><path class="t" d="M341.1,454.241H496.439a9.07,9.07,0,0,0,8.753-11.471l-27.418-99.724a14.881,14.881,0,0,0-14.351-10.932H308.083a9.073,9.073,0,0,0-8.753,11.473l27.418,99.722A14.886,14.886,0,0,0,341.1,454.241Z" transform="translate(-299.001 -332.114)"/></g><g transform="translate(837.543 518.604)"><g transform="translate(0 0)"><g transform="translate(45.088 37.162)"><path class="u" d="M559.588,353.343c-2.344.637-5.591,3.229-9.172,6.67A141.691,141.691,0,0,1,537.9,371.177c-3.007,2.319-5.983,4.42-8.851,6.467-2.8,2.093-5.591,4.044-8,6.044-4.9,3.915-8.641,7.779-9.929,10.68,1.288-2.872,1.836-8.2,4.28-14.656a47.328,47.328,0,0,1,5.193-10.087,42.41,42.41,0,0,1,8.971-9.461,34.245,34.245,0,0,1,18.165-6.509C553.133,353.2,557.262,353.982,559.588,353.343Z" transform="translate(-511.12 -353.343)"/></g><g transform="translate(40.179)"><path class="u" d="M511.79,411.8c.229-2.891-1.186-7.531-2.122-13.651a58.172,58.172,0,0,1,.388-22,81.235,81.235,0,0,1,10.992-25.359c4.229-6.7,8.226-11.539,9.755-15-1.533,3.472-2.362,9.706-3.249,17.329a242.681,242.681,0,0,1-4.024,26.087,104.059,104.059,0,0,1-7.008,19.828C514.054,404.511,512.017,408.9,511.79,411.8Z" transform="translate(-508.802 -335.781)"/></g><g transform="translate(0 26.03)"><path class="u" d="M489.831,348.082c2.327,1.081,6.784,1.1,12.3,2.753a37.375,37.375,0,0,1,17.515,10.616,47.928,47.928,0,0,1,11.1,23.063c1.4,7.2,1,12.876,1.7,16.152-.7-3.322-3.719-8.158-7.989-13.283-4.225-5.2-9.683-10.6-15.088-16.7-4.484-4.924-7.864-9.9-11.062-14.1C495.187,352.363,492.19,349.168,489.831,348.082Z" transform="translate(-489.831 -348.082)"/></g></g><g transform="translate(18.842 57.451)"><path class="v" d="M549.7,363.86H503.842a4.054,4.054,0,0,0-4.028,4.535l5.593,46.842a4.056,4.056,0,0,0,4.03,3.574H544.1a4.056,4.056,0,0,0,4.03-3.574l5.593-46.842A4.056,4.056,0,0,0,549.7,363.86Z" transform="translate(-497.546 -361.894)"/><path class="v" d="M498.741,365.066l2.071,17.343a1.911,1.911,0,0,0,1.9,1.684h50.484a1.911,1.911,0,0,0,1.9-1.684l2.071-17.343a1.909,1.909,0,0,0-1.9-2.135H500.639A1.909,1.909,0,0,0,498.741,365.066Z" transform="translate(-498.728 -362.931)"/></g></g></g></svg>