<svg xmlns="http://www.w3.org/2000/svg" width="547" height="364" viewBox="0 0 547 364"><defs><style>.a,.d{opacity:0.3;}.b,.c,.l{fill:#e4eef9;}.b,.e{stroke:rgba(0,0,0,0);}.c{opacity:0.7;}.d,.e{fill:#dee6ef;}.f{fill:#d9d9d9;}.g{fill:#94a7b7;}.h{fill:#f4f4f4;}.i{fill:#f4f8fd;}.j{fill:#e33351;}.k{fill:#0d4ee0;}.m{fill:#afc4d5;}.n{fill:#d2dbeb;}.o{fill:#313640;}.p{fill:#f29d7e;}.q{fill:#ffbda9;}.r{fill:#e94538;}.s{fill:#323741;}.t{fill:#fcd2c5;}.u{fill:#e6bcad;}.v{fill:#fe985d;}.w{fill:#082c35;}.x{fill:#f39e81;}</style></defs><g transform="translate(-101.096 -60.577)"><g transform="translate(101.096 60.577)"><g transform="translate(0 16.982)"><g class="a" transform="translate(51.908)"><path class="b" d="M268.287,116.225c.927-6.959-6.73-12.5-13.75-12.514-1.339,0-2.832.078-3.838-.806-1.032-.907-1.119-2.447-1.251-3.815A23.873,23.873,0,0,0,206.3,87.445c-2.086,2.9-4.243,6.709-7.817,6.637-2.315-.047-4.174-1.8-6.1-3.076-7.636-5.051-19.313-2.207-23.772,5.788-1.3,2.328-2.312,5.232-4.826,6.12a16.706,16.706,0,0,1-3.664.433c-8.49,1.011-9.807,11.8-1.6,13.543,9.1,1.932,22.435-.512,31.936-.284Q229.362,117.537,268.287,116.225Z" transform="translate(-153.004 -77.559)"/><path class="b" d="M603.754,136.159c.921-6.919-6.692-12.428-13.673-12.443-1.331,0-2.815.078-3.815-.8-1.026-.9-1.113-2.434-1.244-3.793a23.738,23.738,0,0,0-42.906-11.579c-2.074,2.887-4.219,6.67-7.772,6.6-2.3-.047-4.151-1.788-6.071-3.058-7.593-5.022-19.2-2.195-23.637,5.755-1.291,2.315-2.3,5.2-4.8,6.085a16.689,16.689,0,0,1-3.642.431c-8.442,1-9.752,11.732-1.589,13.466,9.044,1.921,22.307-.51,31.754-.283Q565.051,137.465,603.754,136.159Z" transform="translate(-153.812 -77.559)"/></g><g class="a" transform="translate(79.146 90.929)"><path class="c" d="M563.874,299.125v37.1a35.493,35.493,0,0,1-35.492,35.493H303.576c-.08-.627-.125-1.287-.148-1.982-.467-12.4.774-25.63,8.232-35.547,6.6-8.756,17.193-13.675,27.839-16.3,9.963-2.471,20.95-3.53,28.648-10.327,10.793-9.519,10.725-25.9,12.6-40.17s7.731-29.559,20.415-36.083c.33-.182.661-.342,1-.5,3.018-1.4,6.274-2.254,9.212-3.8,13.754-7.23,15.667-25.835,23.9-39.02,11.9-19.038,40.227-25.334,59.06-13.128,4.2,2.721,8.015,6.342,9.928,10.965,3.963,9.553-.831,21.371,4.168,30.423,7.1,12.844,28,10.772,36.788,22.522,5.329,7.139,4.429,16.931,4.088,25.835s.922,19.265,8.46,24l.056.035A12.435,12.435,0,0,1,563.874,299.125Z" transform="translate(-180.242 -168.588)"/><path class="c" d="M471.908,371.718H226.024a45.782,45.782,0,0,1-45.782-45.783h0a28.328,28.328,0,0,1,11.125-22.583,50.561,50.561,0,0,1,8.425-5.189c7.81-3.8,16.7-5.716,23.318-11.34,8.642-7.344,11.477-19.254,14.244-30.253,4.281-17.045,9.781-34.341,21.053-47.81s29.547-22.4,46.569-18.059c8.381,2.129,16.533,7.31,25.016,5.6,4.918-1,9.052-4.2,13.629-6.273,13.492-6.1,30.219-1.39,40.91,8.858,8.9,8.551,14.108,20.244,16.635,32.416q.77,3.655,1.207,7.333a48.728,48.728,0,0,0,1.446,8.528c2.494,8.016,9.769,13.561,17.17,17.546s15.429,7.036,21.68,12.65a34.14,34.14,0,0,1,10.486,18.206c2.892,13.789-2.824,29.08,3.314,41.753,2.505,5.192,6.763,9.325,9.86,14.187A36.326,36.326,0,0,1,471.908,371.718Z" transform="translate(-180.242 -168.588)"/></g><g transform="translate(0 88.963)"><g transform="translate(411.952)"><g transform="translate(1.897)"><path class="d" d="M522.944,316.351c3.151-7.621-3.181-17.9,2.411-23.961,3.092-3.351,8.506-3.511,11.854-6.606,6.308-5.83,1.962-18.3,8.8-23.491,3-2.279,7.257-2.262,10.345-4.424,7.954-5.568,2.955-20.62,11.093-25.916,3.775-2.457,9.068-1.661,12.676-4.355,7.068-5.276,2.6-19.405,10.566-23.189,4.844-2.3,11.206,1.307,15.744-1.553,6.1-3.847,2.677-15.033,8.634-19.1,3.551-2.427,8.544-.862,12.522-2.5,4.288-1.768,6.213-6.621,9.034-10.3s8.893-6.193,11.752-2.541c3.032,7.7-8,14.266-8.262,22.541-.085,2.635.964,5.187,1.074,7.822.433,10.429-13.4,18.257-11.018,28.42.6,2.575,2.245,4.876,2.472,7.511.65,7.524-9.321,10.869-13.613,17.083-5.743,8.314-1.425,22.453-10.082,27.664-2.985,1.8-7.012,2-9.209,4.7-4.2,5.164,1.925,14.507-2.974,19.009-2.31,2.122-5.871,1.831-8.875,2.732a11.376,11.376,0,0,0-7.737,12.076c.51,3.625,2.786,7.391,1.184,10.684-2.545,5.231-11.077,2.771-15.608,6.419-2.878,2.317-3.351,6.412-4.46,9.937s-4.169,7.294-7.741,6.35c-1.333-.353-2.411-1.315-3.659-1.9-10.748-5.047-21.489,15.4-30.645,1.751C511.4,339.54,518.651,326.734,522.944,316.351Z" transform="translate(-515.753 -166.622)"/></g><g transform="translate(0 96.838)"><path class="d" d="M535.218,312.84c2.11-4.96,5.712-10.064,11.056-10.769,3.676-.485,7.347,1.265,11.041.942,10.182-.89,12.981-15.235,21.851-20.313,9.778-5.6,24.117,1.612,32.564-5.842,4.214-3.719,5.86-10.427,11.16-12.3,4.881-1.72,10.836,1.611,15.242-1.1q-4.613,9.037-9.224,18.076a26.508,26.508,0,0,1-4.26,6.626c-3.011,3.1-7.447,4.641-10.092,8.059-4.03,5.207-2.991,13.573-8.122,17.7-4.2,3.377-10.517,2.19-15.327,4.618-10.049,5.072-7.887,21.819-17.249,28.07-7.081,4.729-17.92,1.308-24.1,7.17-2.16,2.05-3.329,4.918-5.159,7.268-8.711,11.184-28.245,5.409-30.532-8.088-.987-5.825,1.556-13.886,5-18.542C525.164,326.178,530.948,322.875,535.218,312.84Z" transform="translate(-513.856 -263.46)"/></g></g><g transform="translate(0 12.856)"><path class="d" d="M198.533,349.179c-6.012-5.646-17.867-3.365-21.554-10.741-2.039-4.078-.272-9.2-1.98-13.426-3.218-7.964-16.416-8.314-18.851-16.551-1.068-3.615.454-7.587-.473-11.241-2.391-9.411-18.237-10.067-20.308-19.553-.96-4.4,1.658-9.068.417-13.4-2.431-8.478-17.227-9.3-17.944-18.093-.436-5.346,5.191-10.018,4.124-15.274-1.435-7.071-13.11-7.827-14.808-14.84-1.012-4.181,2.22-8.3,2.1-12.6-.135-4.637-3.991-8.156-6.435-12.1s-2.643-10.51,1.786-11.89c8.277-.107,10.509,12.53,18.153,15.71,2.435,1.012,5.192.935,7.695,1.765,9.907,3.289,12.328,19,22.676,20.37,2.622.347,5.355-.373,7.9.348,7.267,2.057,6.863,12.566,11.154,18.781,5.741,8.315,20.493,9.285,22.3,19.226.624,3.428-.614,7.265,1.136,10.278,3.344,5.752,14.249,3.337,16.723,9.513,1.167,2.912-.367,6.139-.588,9.268A11.376,11.376,0,0,0,220.3,296.25c3.572.807,7.9.012,10.411,2.676,3.991,4.233-1.332,11.341.475,16.87,1.148,3.512,4.81,5.4,7.713,7.69s5.345,6.483,3.2,9.489c-.8,1.121-2.084,1.788-3.074,2.748-8.527,8.264,6.794,25.551-9.216,29.279C216.13,368.188,206.722,356.87,198.533,349.179Z" transform="translate(-101.096 -179.478)"/><g class="a" transform="translate(84.4 43.247)"><path class="e" d="M199.6,336.457c-3.891-3.73-7.388-8.906-6.155-14.154.848-3.61,3.785-6.423,4.791-9.992,2.774-9.837-9.65-17.534-11.257-27.628-1.771-11.126,10.049-21.983,6.069-32.523-1.985-5.257-7.676-9.172-7.545-14.791.12-5.173,5.344-9.563,4.366-14.644L203.5,237.752a26.522,26.522,0,0,1,4.688,6.332c1.833,3.913,1.7,8.607,3.962,12.291,3.443,5.613,11.634,7.605,13.677,13.865,1.671,5.122-1.677,10.611-1.11,15.968,1.184,11.2,17.611,15.1,20.142,26.073,1.914,8.3-5.124,17.222-1.83,25.074,1.152,2.746,3.421,4.855,4.97,7.4,7.375,12.107-4.945,28.329-18.377,25.688-5.8-1.14-12.435-6.374-15.57-11.243C208.509,350.583,207.469,344,199.6,336.457Z" transform="translate(-185.497 -222.725)"/></g></g></g><path class="f" d="M590.9,370.826H164.639a1.929,1.929,0,0,1-1.927-1.93h0a1.929,1.929,0,0,1,1.927-1.931H590.9a1.929,1.929,0,0,1,1.927,1.931h0A1.928,1.928,0,0,1,590.9,370.826Z" transform="translate(-101.096 -77.659)"/></g><g transform="translate(204.98 91.097)"><g transform="translate(8.509 43.951)"><path class="g" d="M314.989,231.919l64.266-36.252,64.266,36.252v36.514H314.989Z" transform="translate(-314.989 -195.667)"/><g transform="translate(12.342 26.509)"><rect class="h" width="95.978" height="73.723" transform="translate(0 3.571)"/><rect class="i" width="95.977" height="73.724" transform="translate(4.049)"/><rect class="j" width="75.805" height="2.097" transform="translate(13.448 14.943)"/><rect class="k" width="75.805" height="2.097" transform="translate(13.448 21.693)"/><rect class="k" width="75.805" height="2.097" transform="translate(13.448 28.443)"/></g><path class="l" d="M443.52,304.948l-64.266-36.514-64.266,36.514Z" transform="translate(-314.989 -195.667)"/><path class="m" d="M314.989,231.919l64.266,36.514-64.266,36.514Z" transform="translate(-314.989 -195.667)"/><path class="m" d="M443.52,231.919v73.028l-64.266-36.514Z" transform="translate(-314.989 -195.667)"/></g><path class="j" d="M375.181,179.8v-40.75a.337.337,0,0,0-.337-.337H306.816a.336.336,0,0,0-.336.337v48.159a.335.335,0,0,0,.336.336h50.37a.345.345,0,0,1,.2.062l21.339,22.241a.337.337,0,0,0,.511-.391L375.2,179.92A.33.33,0,0,1,375.181,179.8Z" transform="translate(-306.48 -151.717)"/></g><g transform="translate(52.22)"><g transform="translate(265.917 24.742)"><path class="n" d="M530.41,392.255q.132,4.535.263,9.071a15.217,15.217,0,0,1-.366,4.765c-.441,1.486-1.325,2.8-1.9,4.241a11.063,11.063,0,0,0,3.013,12.18,1.349,1.349,0,0,0,.6.344c.594.111,1.042-.51,1.325-1.045,1.323-2.508,2.647-5.017,3.833-7.593,1.067-2.318,2.02-4.689,3.148-6.979,3.5-7.11,8.686-13.458,10.9-21.069a57.568,57.568,0,0,1-15.72-7.976,1.1,1.1,0,0,0-.615-.271,1.068,1.068,0,0,0-.631.315c-1.49,1.235-6.026,4.531-6.051,6.629-.011.982,1.371,2.272,1.7,3.282A14.552,14.552,0,0,1,530.41,392.255Z" transform="translate(-419.233 -85.419)"/><path class="n" d="M488.21,404.61a13.718,13.718,0,0,0-.922,3.945,17.425,17.425,0,0,0,.8,4.613c.655,2.69,1.007,5.566,2.613,7.821s5.061,3.518,7.177,1.733c1.4-1.18,1.7-3.185,2.623-4.766,1.214-2.084,3.589-3.6,3.882-5.994a8.63,8.63,0,0,0-.875-3.961,34.364,34.364,0,0,1-2.074-14.3c.037-.5-8.1-1.751-9.217-.6-1.037,1.076-1.406,3.865-1.885,5.27Q489.273,401.49,488.21,404.61Z" transform="translate(-419.233 -85.419)"/><path class="o" d="M503.67,267.032c-1.4,6.215-3.783,12.167-5.432,18.322-3.07,11.459-3.565,23.427-4.043,35.281q-1.355,33.564-2.707,67.129a6.159,6.159,0,0,0,.706,3.891,5.285,5.285,0,0,0,2.347,1.627,19.106,19.106,0,0,0,8.257,1.466c8.4-24.65,11.15-50.8,16.194-76.348,4.608-23.342,11.159-46.289,15.086-69.755.5-2.98.937-6.138-.187-8.942-1.706-4.253-6.67-6.457-11.251-6.326a25.367,25.367,0,0,0-11.371,3.3c-2.768,1.625-3.142,4.235-3.873,7.339C505.611,251.593,505.384,259.439,503.67,267.032Z" transform="translate(-419.233 -85.419)"/><path class="p" d="M445.36,159.266a3.311,3.311,0,0,0-.966.465c-2.463,1.586-5.948,3.57-7.714,5.956-1.413,1.908-2.285,5.329-3.172,7.6l-3.2,8.2c-.587,1.5-3.63,4.442-3.8,6.047,8.619-2.985,19.549-7.787,27.854-11.561l-7.345-15.532a2,2,0,0,0-.978-1.153A1.176,1.176,0,0,0,445.36,159.266Z" transform="translate(-419.233 -85.343)"/><path class="o" d="M475.019,263.09q-4.8,26.369-9.6,52.738c-.512,2.811-1.007,5.8.062,8.451.916,2.267,2.843,3.937,4.569,5.669,3.857,3.868,6.961,8.4,10.34,12.7,8.856,11.252,19.611,20.84,30.3,30.363l12.994,11.572a6.236,6.236,0,0,0,1.646,1.174c2.311.983,4.739-.988,6.479-2.8s3.6-3.993,3.208-6.46a8.074,8.074,0,0,0-1.493-3.131,315.119,315.119,0,0,0-26.339-33.924c-3.58-4.014-7.342-8.059-9.322-13.06-1.831-4.625-1.995-9.722-1.986-14.7a80.853,80.853,0,0,1,1.012-14.329,116.938,116.938,0,0,1,3.115-11.853,273.18,273.18,0,0,0,8.9-43.107,3.185,3.185,0,0,0-.206-2.05c-.679-1.117-2.319-.978-3.591-.677a120.853,120.853,0,0,0-21.721,7.353C476.987,249.9,476.2,256.62,475.019,263.09Z" transform="translate(-419.233 -85.419)"/><path class="k" d="M447.476,156.259c-.383.423-2.152,1.83-2.3,2.383-.2.778,1.155,1.946,1.466,2.688,1.566,3.735,3.468,6.714,5.033,10.449.266.633,1.2,4.156,1.688,4.642,1.253,1.252,4.206-2.1,6.47-3.35,5.772,11.748,6.614,25.2,8.5,38.148,1.8,12.385,3.643,18.277,6.473,30.467.134.58,1.267,9.479,1.612,9.963.41.575,8.193-1.476,12.233-2.878,2.7-.937,6.519-2.626,9.376-2.744,6.4-.263,12.157-5.337,18.558-5.4a16.989,16.989,0,0,0,9.031-2.209c1.339-.835,2.64-.763,3.864-1.758,1.97-1.6,4.794-2.3,6.024-4.527,1.267-2.289.262-5.119-.756-7.529l-8.916-21.115a15.581,15.581,0,0,1-1.406-10.259q1.327-12.192,2.654-24.383,2.086,8.475,4.174,16.952l15.728-10.538c.563-.377,1.627-.8,1.85-1.438.218-.621-.437-1.3-.625-1.935q-2.217-7.413-4.432-14.826c-1.247-4.17-2.618-8.547-5.8-11.521-2.771-2.591-6.544-3.76-10.179-4.85l-16.839-5.053a8.676,8.676,0,0,0-3.052-.528,10.109,10.109,0,0,0-3.225,1.045,30.718,30.718,0,0,1-13.024,2.461c-3.633-.106-7.31-1.688-10.915-1.283-7.87.885-16.293,5.622-22.648,10.1A60.757,60.757,0,0,0,447.476,156.259Z" transform="translate(-419.233 -85.319)"/><path class="q" d="M538.158,204.087a11.622,11.622,0,0,1-.365,10.183c-2.123,5.023-3.152,10.677-5.275,15.7a145.613,145.613,0,0,0-4.99,13.8c-.535,1.761,2.374,3.908,6.267,6.539,6.669-13.6,15.038-26.873,23.047-39.735a12.444,12.444,0,0,0,2.011-4.415,10.071,10.071,0,0,0-.26-3.793c-1.61-7.262-8.058-23.736-10.227-28.547,0,0-15.7,10.161-15.7,11.027,0,2.081,2.359,8.379,2.782,9.846C536.35,197.814,537.13,201,538.158,204.087Z" transform="translate(-419.233 -85.353)"/><path class="q" d="M433.594,118.323a36.669,36.669,0,0,0-2.654-2.9,4.181,4.181,0,0,1-1.175-3.6,1.458,1.458,0,0,1,1.8.018,14.984,14.984,0,0,0,1.571,1.152c1.594.751,3.341-.559,4.669-1.717s3.29-2.285,4.712-1.244c.634.465.975,1.277,1.667,1.651,1.055.571,2.709.027,3.316,1.062.273.466.175,1.074.42,1.556.5.98,2.059.917,2.658,1.839a2.615,2.615,0,0,1,.3,1.284c.133,2.2.217,4.589-1.044,6.4-.759,1.087-1.92,1.825-2.78,2.834a13.018,13.018,0,0,0-1.986,3.747c-3.775,9.5-7.587,19.148-8.646,29.315-.519,4.986-.37,10.051-1.37,14.962s-3.385,9.841-7.683,12.419a2.041,2.041,0,0,1-1.551.39,2.144,2.144,0,0,1-1.025-.873c-3.512-4.668-5.995-10.409-5.5-16.229a33.265,33.265,0,0,1,1.216-5.893q3.385-12.411,7.579-24.583,2.11-6.129,4.424-12.189C433.737,124.539,435.888,121.687,433.594,118.323Z" transform="translate(-419.233 -85.319)"/><path class="p" d="M479.639,139.144a3.825,3.825,0,0,0-.314,2.156,3.7,3.7,0,0,0,1.441,1.819c4.937,3.991,11.192,7.249,17.419,6.015a22.8,22.8,0,0,0,6.174-2.432c3.982-2.112,8.156-5.178,8.672-9.656a94.173,94.173,0,0,1-11.592-14.639c-.232-.362-.514-.761-.939-.822a1.506,1.506,0,0,0-.767.164c-4.823,1.974-10.672,3.47-15.1,6.2-1.452.9-1.751,2-2.317,3.583C481.566,133.641,479.639,136.929,479.639,139.144Z" transform="translate(-419.233 -85.319)"/><path class="q" d="M472.132,118.269a3.425,3.425,0,0,0,2.582.664A29.809,29.809,0,0,0,480.62,129.5a10.139,10.139,0,0,0,2.861,2.457,10.455,10.455,0,0,0,4.33.943,36.258,36.258,0,0,0,4.52-.051,8.37,8.37,0,0,0,3.211-.723,8.251,8.251,0,0,0,2.879-2.862,31.524,31.524,0,0,0,3.077-5.67,4.463,4.463,0,0,0,.429-1.614,4.8,4.8,0,0,0-.362-1.626q-1.689-4.839-3.377-9.678a1.565,1.565,0,0,1-.13-.719,2.146,2.146,0,0,1,.591-.949,2.916,2.916,0,0,0-2.422-4.72q-.862-1.739-1.724-3.478a8.234,8.234,0,0,0-1.189-1.931,5.638,5.638,0,0,0-1.833-1.283,8.393,8.393,0,0,0-7.256.065,11.991,11.991,0,0,0-4.532,4.689c-1.135,1.887-2.03,3.916-3.254,5.747-1.15,1.722-3.01,3.013-3.764,4.937C472.029,114.682,470.314,116.762,472.132,118.269Z" transform="translate(-419.233 -85.319)"/><path class="r" d="M478.06,85.332a26.547,26.547,0,0,0-12.429,3.4c-3.015,1.759-5.756,4.506-6.226,7.965-.543,3.982,2.016,7.705,4.789,10.615a50.154,50.154,0,0,0,8.051,6.837,5.6,5.6,0,0,0,2.424,1.108,4.491,4.491,0,0,0,3.055-1.009c3.183-2.306,4.5-6.369,5.344-10.208a11.661,11.661,0,0,1,1.318-3.9,3.622,3.622,0,0,1,3.456-1.812c1.431.248,2.374,1.584,3.155,2.808l3.087,4.836a2.229,2.229,0,0,0,.952.969c1.241.49,2.1-1.288,2.188-2.62A31.1,31.1,0,0,0,496.1,93.73c-1.072-3.751-3.6-3.918-6.649-5.451C485.641,86.365,482.436,85.179,478.06,85.332Z" transform="translate(-419.233 -85.319)"/></g><path class="s" d="M287.083,267.229a1.923,1.923,0,0,1,1.221.545,1.813,1.813,0,0,1,.3.921c.9,7.162-2.139,14.267-6.1,20.3s-8.886,11.416-12.511,17.658a99.762,99.762,0,0,0-4.454,9.008q-3.348,7.387-6.7,14.776-12.6,27.8-25.312,55.559c-.839,1.823-1.766,3.747-3.469,4.808s-4.411.742-5.159-1.12c.788-22.159,11.829-42.442,18.794-63.493a176.755,176.755,0,0,0,7.66-34.246,19.541,19.541,0,0,0,.073-5.985c-.4-2.1-1.442-4.038-1.779-6.147-.427-2.672.307-5.379,1.034-7.985.706-2.53,1.08-7.145,3.1-9.055,2.229-2.105,6.173-.461,8.785.012C270.728,264.267,278.885,266.015,287.083,267.229Z" transform="translate(-153.316 -60.677)"/><path class="o" d="M230.29,276.125a55.749,55.749,0,0,0-.177,13.054,532.817,532.817,0,0,0,20.618,114.4c.591,2,1.762,4.417,3.841,4.3,2.412-.137,3.036-3.379,2.958-5.794-.37-11.388-.743-22.8-2.364-34.082-1.011-7.03-2.508-14.028-2.586-21.13-.091-8.242,1.729-16.367,2.885-24.528.8-5.646,1.283-11.331,1.766-17.013q1.689-19.861,3.377-39.723a3.158,3.158,0,0,0-.159-1.666,3.193,3.193,0,0,0-2.383-1.326c-4.629-.98-16.054-5.711-20.365-3.434C233.585,261.355,230.973,271.937,230.29,276.125Z" transform="translate(-153.316 -60.677)"/><path class="t" d="M284.532,266.793l-3.416-15.263-38.808,8.744Z" transform="translate(-153.316 -60.631)"/><path class="u" d="M261.169,168.929l10.712,11.6s-10.741,20.873-30.132,7.959l3.185-18.94Z" transform="translate(-153.316 -60.609)"/><path class="t" d="M262.38,152l.8,18.383-3.49,2.309a12.059,12.059,0,0,1-12.127.687l-4.261-2.171-3.161-24.155,21.31-2.9Z" transform="translate(-153.316 -60.602)"/><path class="v" d="M266.954,176.58S272.082,190.1,256.7,190.1c0,0-12.228,1.634-15.384-6.323l-7.888-3.015-22.878-4.181L203.7,194.555l25.385,10.476,9.072,31.137-4,17.7a5.61,5.61,0,0,0,6.624,6.724L290.5,250.16a5.609,5.609,0,0,0,3.41-8.752L288.2,233.43a26.137,26.137,0,0,1-4.542-19.372l5.383-33.3,3.156-26.242-21.3-2.867Z" transform="translate(-153.316 -60.612)"/><path class="t" d="M288.455,154.015,268.542,90l-5.68,3.687,12.739,58.6Z" transform="translate(-153.316 -60.577)"/><path class="t" d="M208.957,180.761,195.3,174.494,184.864,120.5l-5.112,3.227,5.36,55.554,19.434,13.063Z" transform="translate(-153.316 -60.597)"/><path class="n" d="M276.087,62.914l23.032-2.337L286.574,78.3Z" transform="translate(-153.316 -60.577)"/><path class="o" d="M276.087,62.914,161.523,135.234l10.857,17.184L286.574,78.3Z" transform="translate(-153.316 -60.577)"/><path class="n" d="M161.523,135.234l-3.487,2.213a10.163,10.163,0,0,0-3.147,14.01h0a10.164,10.164,0,0,0,14.037,3.153l3.454-2.192Z" transform="translate(-153.316 -60.577)"/><path class="w" d="M172.38,152.418,286.574,78.3l-2.851-4.182L170.15,148.89Z" transform="translate(-153.316 -60.577)"/><path class="t" d="M183.473,121.377,186.8,125.3l-6.528,3.769-4.223-3Z" transform="translate(-153.316 -60.577)"/><path class="x" d="M276.883,84.586l-.8,4.781-6.727,3.263-1.182-2.393Z" transform="translate(-153.316 -60.577)"/><path class="n" d="M255.129,397.3l-3.7.665a2.534,2.534,0,0,0-2.077,2.719l.58,6.574a2.53,2.53,0,0,1-.287,1.413l-5.5,10.348a2.535,2.535,0,0,0,.506,3.041l2.057,1.928a2.537,2.537,0,0,0,1.957.675l6.059-.535a2.536,2.536,0,0,0,1.886-1.119l2.859-4.287a2.532,2.532,0,0,0,.313-2.156l-2.66-8.611a2.543,2.543,0,0,1-.082-1.143l1.041-6.622A2.536,2.536,0,0,0,255.129,397.3Z" transform="translate(-153.316 -60.677)"/><path class="n" d="M231.411,386.437l-3.79-1.765a1.579,1.579,0,0,0-2.009.6l-5.52,8.926a1.388,1.388,0,0,1-.1.142l-1.556,1.991L215.5,400.09a1.579,1.579,0,0,0-.12,1.766l10.973,18.838a1.579,1.579,0,0,0,2.869-.314l1.079-3.372a1.579,1.579,0,0,0,0-.95l-3.792-12.183a1.584,1.584,0,0,1,.039-1.048l5.661-14.381A1.578,1.578,0,0,0,231.411,386.437Z" transform="translate(-153.316 -60.677)"/><path class="o" d="M233.644,143c-2.171,4.108.459,9.384-1.214,13.719-.961,2.49-3.264,4.409-3.706,7.041-.439,2.616,1.092,5.274.611,7.882-.533,2.893-3.29,4.746-5,7.141a10.915,10.915,0,0,0-1.887,7.837c.257,1.739.939,3.425.907,5.183-.073,4-3.791,7.49-3.08,11.423.328,1.813,1.567,3.338,2.044,5.117.719,2.684-.374,5.475-.754,8.228s.45,6.207,3.128,6.947c.958.264,2.062.143,2.857.738.939.7,1.011,2.046,1.188,3.2a7.136,7.136,0,0,0,3.024,5.107,4.245,4.245,0,0,0,5.511-.817c.64-.9.868-2.124,1.779-2.742,1.914-1.3,4.481,1.318,6.686.62a3.764,3.764,0,0,0,1.581-1.134,9.386,9.386,0,0,0,2.176-8.222c-.286-1.278-.846-2.588-.486-3.847a8.249,8.249,0,0,1,1.1-1.971,8.531,8.531,0,0,0,.626-7.593c-.592-1.442-1.583-2.716-2-4.218-.956-3.445,1.3-7.289-.027-10.611-.762-1.911-2.567-3.224-3.492-5.061-2.22-4.41,1.306-9.885-.195-14.588-.4-1.265-1.156-2.4-1.528-3.674-1.186-4.059,1.687-8.183,1.814-12.41.044-1.491-.257-2.987-.1-4.47.139-1.286.622-2.526.656-3.819.065-2.437-2.28-6.908-4.486-8.108C238.789,138.49,234.859,140.7,233.644,143Z" transform="translate(-153.316 -60.606)"/><path class="o" d="M246.627,148.092a6.29,6.29,0,0,1,2.09.542c1.107.685,1.337,2.3,2.429,3a4.8,4.8,0,0,0,2.975.316c2.661-.188,5.712.69,6.861,3.1,1.035,2.169.187,4.778.728,7.119a37.072,37.072,0,0,1,1.152,4.619,36.664,36.664,0,0,1-.251,4.958c-.059,1.711.593,3.371.683,5.081.223,4.268-3.035,8.507-1.624,12.542.286.817.752,1.562,1.046,2.376,1.163,3.224-.461,7.186,1.414,10.054.94,1.438,2.642,2.349,3.246,3.957a18.973,18.973,0,0,1,.479,2.456,5.393,5.393,0,0,0,4.481,4.029,18.9,18.9,0,0,1,2.933.236c1.495.427,2.513,1.812,3.9,2.512a4.784,4.784,0,0,0,5.714-1.25c.482-.6.851-1.362,1.552-1.688,1.193-.556,2.782.408,3.852-.359a2.735,2.735,0,0,0,.8-1.155c1.2-2.671,1.953-6.012.208-8.363a12.436,12.436,0,0,1-1.22-1.588c-1.127-2.182.985-4.994-.052-7.22-.947-2.033-3.8-2.213-5.459-3.72-2.245-2.037-1.769-5.923-3.884-8.094-1.778-1.824-5.172-2.237-5.752-4.717a22.1,22.1,0,0,1-.079-2.578c-.341-3.027-4.211-4.573-4.879-7.545-.293-1.3.086-2.708-.334-3.976-.282-.854-.9-1.559-1.222-2.4-.852-2.248.607-4.906-.319-7.125-.364-.871-1.064-1.575-1.386-2.462a25.856,25.856,0,0,1-.45-3.013,8.459,8.459,0,0,0-1.866-3.21c-2.13-2.662-4.4-5.434-7.569-6.7-3.042-1.219-9.683-1.867-12.475.464C240.947,141.13,242.238,147.175,246.627,148.092Z" transform="translate(-153.316 -60.603)"/></g></g></g></svg>