<svg xmlns="http://www.w3.org/2000/svg" xmlns:xlink="http://www.w3.org/1999/xlink" width="214.693" height="157.505" viewBox="0 0 214.693 157.505"><defs><style>.a,.h{fill:#0d4ee0;}.a{opacity:0.2;}.b{fill:none;stroke:#535461;stroke-miterlimit:10;stroke-width:2px;}.c{fill:#8ed16f;}.d,.e{opacity:0.3;}.f,.t{fill:#fff;}.g{fill:url(#a);}.i{fill:#d6d6e3;}.j{fill:url(#b);}.k{fill:#aca9c9;}.l,.v{fill:#313640;}.m,.o{opacity:0.1;}.n{fill:#f7c4a7;}.p{fill:#e33351;}.q{fill:#281c1c;}.r{fill:#0037b2;}.s{fill:#618fd8;}.t{opacity:0.4;}.u{opacity:0.05;}.v{opacity:0.5;}</style><linearGradient id="a" x1="0.5" y1="1" x2="0.5" gradientUnits="objectBoundingBox"><stop offset="0" stop-color="gray" stop-opacity="0.251"/><stop offset="0.54" stop-color="gray" stop-opacity="0.122"/><stop offset="1" stop-color="gray" stop-opacity="0.102"/></linearGradient><linearGradient id="b" x1="9.926" x2="9.926" y2="0" xlink:href="#a"/></defs><g transform="translate(0 0.001)"><path class="a" d="M179.255,249.722c-2.824.853-5.467,2.918-6.172,5.784-.807,3.293,1.054,6.613,1.323,9.994.868,11.079-14.892,18.895-12.644,29.777.893,4.327,4.5,7.51,8.057,10.14,5.7,4.2,12.015,7.909,19.014,8.956,10.622,1.591,21.721-3.086,32.045-.13,8.328,2.385,14.7,9.375,22.97,11.954,6.3,1.964,13.078,1.19,19.618.395,3.527-.428,7.221-.921,10.067-3.037,5.29-3.939,5.623-11.718,9.165-17.292,5.471-8.6,17.466-10.285,27.524-8.614s19.825,5.784,30.015,5.449a13.7,13.7,0,0,0,6.309-1.437c2.31-1.3,3.871-3.586,5.25-5.85a94.662,94.662,0,0,0,13.726-47.036c.06-2.855-.042-5.832-1.384-8.352-1.7-3.187-5.09-5.094-8.467-6.377-8.109-3.086-17.068-3.591-25.014-7.071-7.664-3.357-13.871-9.245-20.546-14.29a109.439,109.439,0,0,0-45.075-20.074c-3.833-.741-7.812-1.27-11.621-.414-4.389.985-8.171,3.721-11.572,6.666-9.048,7.834-16.3,17.5-24.639,26.085a140.275,140.275,0,0,1-18.718,16.142c-3.086,2.224-6.366,4.865-9.8,6.509C185.535,249.1,182.584,248.719,179.255,249.722Z" transform="translate(-150.843 -169.928)"/><path class="b" d="M378.737,138.88s-8.519,11.314-2.425,24.5S365.69,197.76,365.69,197.76" transform="translate(-309.991 -128.71)"/><path class="c" d="M422.728,98.676c-.677,2.912-3.915,4.647-3.915,4.647s-2.138-2.987-1.461-5.9,2.425-4.993,3.915-4.647S423.4,95.764,422.728,98.676Z" transform="translate(-350.162 -92.74)"/><ellipse class="c" cx="1.699" cy="0.637" rx="1.699" ry="0.637" transform="translate(68.765 6.794) rotate(-76.9)"/><ellipse class="d" cx="1.699" cy="0.637" rx="1.699" ry="0.637" transform="translate(68.765 6.794) rotate(-76.9)"/><path class="c" d="M414.209,157.944c-2.813,1.014-6.029-.763-6.029-.763s1.345-3.419,4.159-4.431,5.511-.661,6.029.763S417.021,156.93,414.209,157.944Z" transform="translate(-343.115 -139.072)"/><ellipse class="c" cx="1.699" cy="0.637" rx="1.699" ry="0.637" transform="matrix(0.94, -0.34, 0.34, 0.94, 68.273, 16.008)"/><ellipse class="d" cx="1.699" cy="0.637" rx="1.699" ry="0.637" transform="matrix(0.94, -0.34, 0.34, 0.94, 68.273, 16.008)"/><path class="c" d="M411.239,204.714c-2.813,1.014-6.029-.763-6.029-.763s1.345-3.419,4.159-4.431,5.511-.661,6.029.763S414.051,203.7,411.239,204.714Z" transform="translate(-340.8 -175.533)"/><ellipse class="c" cx="1.699" cy="0.637" rx="1.699" ry="0.637" transform="translate(67.651 26.469) rotate(-19.8)"/><ellipse class="d" cx="1.699" cy="0.637" rx="1.699" ry="0.637" transform="translate(67.651 26.469) rotate(-19.8)"/><path class="c" d="M426.149,259.584c-2.813,1.014-6.029-.763-6.029-.763s1.345-3.419,4.159-4.431,5.511-.661,6.029.763S428.961,258.577,426.149,259.584Z" transform="translate(-352.423 -218.308)"/><ellipse class="c" cx="1.699" cy="0.637" rx="1.699" ry="0.637" transform="translate(70.938 38.569) rotate(-19.8)"/><ellipse class="d" cx="1.699" cy="0.637" rx="1.699" ry="0.637" transform="translate(70.938 38.569) rotate(-19.8)"/><path class="c" d="M416.449,309.764c-2.813,1.014-6.029-.763-6.029-.763s1.345-3.419,4.159-4.431,5.511-.661,6.029.763S419.263,308.753,416.449,309.764Z" transform="translate(-344.861 -257.427)"/><ellipse class="c" cx="1.699" cy="0.637" rx="1.699" ry="0.637" transform="matrix(0.94, -0.34, 0.34, 0.94, 68.806, 49.446)"/><ellipse class="d" cx="1.699" cy="0.637" rx="1.699" ry="0.637" transform="matrix(0.94, -0.34, 0.34, 0.94, 68.806, 49.446)"/><path class="c" d="M369.9,169.523c2.076,2.151,5.746,1.984,5.746,1.984s.3-3.661-1.774-5.813-4.649-3.037-5.746-1.984S367.823,167.372,369.9,169.523Z" transform="translate(-311.505 -147.721)"/><ellipse class="c" cx="0.637" cy="1.699" rx="0.637" ry="1.699" transform="matrix(0.719, -0.695, 0.695, 0.719, 58.821, 19.035)"/><ellipse class="d" cx="0.637" cy="1.699" rx="0.637" ry="1.699" transform="matrix(0.719, -0.695, 0.695, 0.719, 58.821, 19.035)"/><path class="c" d="M364.49,324.513c2.076,2.151,5.746,1.984,5.746,1.984s.3-3.661-1.774-5.813-4.649-3.037-5.746-1.984S362.413,322.362,364.49,324.513Z" transform="translate(-307.287 -268.548)"/><ellipse class="c" cx="0.637" cy="1.699" rx="0.637" ry="1.699" transform="matrix(0.719, -0.695, 0.695, 0.719, 57.626, 53.202)"/><ellipse class="d" cx="0.637" cy="1.699" rx="0.637" ry="1.699" transform="matrix(0.719, -0.695, 0.695, 0.719, 57.626, 53.202)"/><path class="c" d="M371.68,225.457c2.676,1.336,6.077-.053,6.077-.053s-.937-3.551-3.611-4.887-5.4-1.323-6.077.053S369,224.121,371.68,225.457Z" transform="translate(-311.724 -191.58)"/><ellipse class="c" cx="0.637" cy="1.699" rx="0.637" ry="1.699" transform="translate(59.427 31.12) rotate(-63.48)"/><ellipse class="d" cx="0.637" cy="1.699" rx="0.637" ry="1.699" transform="translate(59.427 31.12) rotate(-63.48)"/><path class="c" d="M376.772,280.027c2.676,1.336,6.077-.053,6.077-.053s-.937-3.551-3.611-4.887-5.4-1.323-6.077.053S374.107,278.7,376.772,280.027Z" transform="translate(-315.694 -234.122)"/><ellipse class="c" cx="0.637" cy="1.699" rx="0.637" ry="1.699" transform="translate(60.55 43.15) rotate(-63.48)"/><ellipse class="d" cx="0.637" cy="1.699" rx="0.637" ry="1.699" transform="translate(60.55 43.15) rotate(-63.48)"/><path class="c" d="M180.861,249.21a37.155,37.155,0,0,1,6.776,38.649c-8.784,23.09,15.057,61.485,15.057,61.485s-.256-.037-.73-.121C170,343.583,154.133,307.032,171.9,279.88,178.5,269.784,183.93,257.943,180.861,249.21Z" transform="translate(-153.147 -214.721)"/><path class="c" d="M113,534.032s17.755-2.828,19.373,13.084,34.142,18.119,34.142,18.119l-.611.406c-26.854,17.634-52.525,11.229-48.657-12.178C118.689,544.758,118.57,536.018,113,534.032Z" transform="translate(-113 -436.609)"/><g class="e" transform="translate(0 97.228)"><path class="f" d="M113,534.032s17.755-2.828,19.373,13.084,34.142,18.119,34.142,18.119l-.611.406c-26.854,17.634-52.525,11.229-48.657-12.178C118.689,544.758,118.57,536.018,113,534.032Z" transform="translate(-113 -533.838)"/></g><ellipse class="c" cx="4.882" cy="12.738" rx="4.882" ry="12.738" transform="translate(18.337 71.75)"/><ellipse class="d" cx="4.882" cy="12.738" rx="4.882" ry="12.738" transform="translate(18.337 71.75)"/><ellipse class="c" cx="3.291" cy="7.325" rx="3.291" ry="7.325" transform="translate(10.088 122.72) rotate(-45)"/><ellipse class="d" cx="3.291" cy="7.325" rx="3.291" ry="7.325" transform="translate(10.088 122.72) rotate(-45)"/><path class="g" d="M409.5,358.2H293.926a5.266,5.266,0,0,0-5.266,5.266v67.743a5.266,5.266,0,0,0,5.266,5.266H409.5a5.266,5.266,0,0,0,5.266-5.266V363.466A5.266,5.266,0,0,0,409.5,358.2Z" transform="translate(-249.94 -299.686)"/><rect class="h" width="123.14" height="76.432" rx="6" transform="translate(40.203 59.435)"/><rect class="i" width="99.786" height="6.793" transform="translate(51.881 97.227)"/><path class="j" d="M822.153,221.28a2.138,2.138,0,0,0,.941,1.19c2.026,1.338,6.43,1.054,6.959,1.054.112,0,.26.2.423.538a37.214,37.214,0,0,1,2.065,7.367c.108,1.281,1.3,7.274,3.247,9.507.06.068.119.132.176.192,1.911,1.92,4.153-.192,4.153-.192l.322-1.118c-.09.441-.192.954-.293,1.53-.051.289-.1.6-.15.91a34.889,34.889,0,0,0-.456,5.372,19.476,19.476,0,0,0,.084,1.957c.018.181.037.359.062.533a18.692,18.692,0,0,1,.145,2.389,64.949,64.949,0,0,1-1.228,10.644l.046-.015c-.029.148-.046.22-.046.22l.07-.022q-.051.328-.1.672c-.41,2.976-.646,6.679-.758,8.817a17.656,17.656,0,0,0,.15,3.377l2.151,15.145V298.4a12.457,12.457,0,0,0,.388,3.17c.7,2.665.123,11.967-.2,16.38-.09,1.2-.161,2.046-.181,2.288v.073l.062-.024v.077a1.249,1.249,0,0,1,.287-.084c-.853,1.323-2.4,3.509-3.586,3.877a3.763,3.763,0,0,0-1.792,1.188l-.031.042-.044.062a1.323,1.323,0,0,0-.258.674.74.74,0,0,1-.04-.13c-.09.492.205.941,1.133,1.159a7.626,7.626,0,0,0,1.642.132c3.218,0,8.929-.99,9.56-2.054V321.56l.1.033v.033l.395.13,1.082-3.633c1.3-.961.22-18.161,0-22.113-.2-3.6,2.03-17.929,2.425-20.453l-.053-.064.06-.368a1.565,1.565,0,0,1,.22.194,2.874,2.874,0,0,1,.337.5,6.654,6.654,0,0,1,.478.988c2.178,5.431,3.159,20.962,3.159,22.355v14.605a15.208,15.208,0,0,0,.6,4.261,18.271,18.271,0,0,1,.463,2.217c.046.293.086.584.123.862s.075.6.1.855a1.783,1.783,0,0,0,.022.2.387.387,0,0,1,0,.09c.06.575.09.952.09.952a.223.223,0,0,1,.044-.086l.011.139a.3.3,0,0,1,.086-.137,2.087,2.087,0,0,1,.291-.238v1.856l-.053-.04v.32c2.244,1.693,5.9,2.2,8.7,2.184a11.13,11.13,0,0,0,3.8-.476c.732-.359.331-1.2-.335-1.838a2.514,2.514,0,0,0-1.614-.833c-.71.077-3.137-2.672-4.408-4.177l.143-.064.2-.088V295.369s.326-9.615,1.3-19.124a33.833,33.833,0,0,0-1.664-14.187l-.031-.09.3.046c.313.049.48.077.48.077a1.826,1.826,0,0,0-.02-.22h.02s-.379-4.124-.383-9.3c0-5.872.5-13.032,2.548-17.083a12.052,12.052,0,0,0,1.543-5.652,5.912,5.912,0,0,0-1.056-3.615,2.865,2.865,0,0,0-1.215-.961l-.042-.024h-.022a3.02,3.02,0,0,0-1.115-.22h-4.433a2.961,2.961,0,0,1-1.464-.386l-1.735-.983a8.8,8.8,0,0,1-.538-4.3c0-.117.022-.234.033-.348l.126-.132c.1-.1.187-.22.276-.32a2.44,2.44,0,0,1-.02.26c-.022.139-.06.22-.119.238A3.829,3.829,0,0,0,858.885,218c.024-.029.046-.06.068-.09a4.73,4.73,0,0,0,.425-.882,2.562,2.562,0,0,1,.324-.591c.146-.19.335-.344.492-.525l.026-.031a3.806,3.806,0,0,0,.6-2.473c.011-2.1-.051-4.408-1.455-5.982a6.624,6.624,0,0,0-4.792-1.863c-1.766-.057-3.527.26-5.29.269-1.2,0-2.645-.02-3.306.972-.324.487-.364,1.124-.716,1.591-.2.269-.514.5-.531.835a.858.858,0,0,0,.115.441v.015a3.118,3.118,0,0,0,2.284,1.532,5.693,5.693,0,0,0-.441.608,5.793,5.793,0,0,0-.882,3.086,3.622,3.622,0,0,0,.013.379,5.826,5.826,0,0,0,1.847,3.882c-.018.123-.035.247-.055.368l.04.035q.187.17.39.322l.048.037v.22a3.708,3.708,0,0,1-.013.384c-.013.126,0,.2-.013.3l-.029-.024-2.154-1.8-3.463-3.2s-8.658-6.3-9.092-3.306a2.158,2.158,0,0,0,.412,1.495c1.589,2.425,7.054,4.488,7.054,4.488a46.182,46.182,0,0,1,5.438,7.159c-.077.042-.154.082-.236.119a10.223,10.223,0,0,1-4.77.52c-3.269.509-3.564,4.091-3.547,5.539v.3l-4.338-10.186-.013-.031a2.145,2.145,0,0,0-1.622-1.274C828.8,220.155,821.547,219.139,822.153,221.28Zm18.161,98.971a1.877,1.877,0,0,1,.192-.035l-.02.031Z" transform="translate(-665.81 -180.691)"/><path class="k" d="M984.727,716.43s4.109,5.165,5.059,5.059,3.161,2,1.9,2.645-8.535,1.054-12.123-1.686v-4.129Z" transform="translate(-788.549 -578.954)"/><path class="k" d="M886.972,717.86s-2.425,4.32-4.109,4.849-3.161,2.425-.948,2.952,10.118-.633,10.854-1.9v-5.588Z" transform="translate(-711.556 -580.068)"/><path class="l" d="M894.385,466.647l2.094,14.94v6.946a12.445,12.445,0,0,0,.379,3.126c.683,2.63.121,11.8-.2,16.157-.1,1.419-.183,2.328-.183,2.328,1.369-.633,7.166,1.369,7.166,1.369l.586-1.995.467-1.587c1.265-.948.22-17.914,0-21.822-.143-2.669,1.047-11.323,1.81-16.51.22-1.466.4-2.645.507-3.355.068-.441.106-.685.106-.685a2.308,2.308,0,0,1,.569.685,6.593,6.593,0,0,1,.465.974c2.12,5.359,3.086,20.678,3.086,22.042v14.407a15.194,15.194,0,0,0,.58,4.2,22.036,22.036,0,0,1,.571,3.035c.15,1.144.22,2.065.22,2.065.106-.633,6.639-3.478,6.639-3.478V485.467s.315-9.478,1.265-18.864a33.656,33.656,0,0,0-1.212-12.692c-.262-.9-.525-1.658-.752-2.259-.386-1.025-.661-1.591-.661-1.591H896.369c-.362.068-.661.8-.932,1.9-.176.741-.331,1.649-.465,2.645-.4,2.934-.628,6.586-.738,8.7A17.606,17.606,0,0,0,894.385,466.647Z" transform="translate(-722.013 -371.298)"/><g class="m" transform="translate(174.519 78.828)"><path d="M983.981,509.8V485.769s.315-9.478,1.265-18.864A32.862,32.862,0,0,0,982.6,450.36h.421a33.054,33.054,0,0,1,2.645,16.545c-.937,9.379-1.265,18.864-1.265,18.864V509.8s-6.533,2.846-6.639,3.478a3.148,3.148,0,0,0-.033-.383A61.441,61.441,0,0,1,983.981,509.8Z" transform="translate(-961.641 -450.36)"/><path d="M905.32,722.32a1.636,1.636,0,0,0-.58.119v-.106A3.776,3.776,0,0,1,905.32,722.32Z" transform="translate(-904.74 -662.369)"/><path d="M936.534,562.99c1.265-.948.221-17.914,0-21.822s2.425-20.548,2.425-20.548a1.839,1.839,0,0,1,.364.375c-.388,2.486-2.557,16.622-2.365,20.173.22,3.9,1.265,20.865,0,21.822l-1.054,3.582-.384-.128Z" transform="translate(-928.735 -505.133)"/></g><path class="n" d="M844.691,286.525l-2.2,7.8s-2.319,2.2-4.214,0-3.064-8.114-3.179-9.379-1.792-7.8-2.425-7.8-6.954.421-7.693-2.2c-.591-2.112,6.467-1.1,9.293-.628a2.094,2.094,0,0,1,1.58,1.256l4.333,10.349S842.478,283.259,844.691,286.525Z" transform="translate(-668.012 -233.776)"/><path class="n" d="M937.7,249.82s-2.74,7.693.738,10.433S926,263.731,926,263.731l2.16-2.054s1.528-6.059.474-11.118Z" transform="translate(-746.794 -215.196)"/><path class="o" d="M909.075,292.122s2.793-.686,2.793-1.422l2.475,1.422h6.218s4.532,2.528.738,10.118-2.107,26.231-2.107,26.231-13.488-2.425-24.659,1.265c0,0,1.686-8.325,1.054-13.067s1.054-11.381,1.054-11.381l.948-4.005s-.053-3.747-3.952-1.845c0,0-.58-5.427,3.425-6.059,0,0,4.629.633,6.007-1.686A7.041,7.041,0,0,0,909.075,292.122Z" transform="translate(-721.542 -247.065)"/><path class="p" d="M909.075,291.172s2.793-.686,2.793-1.422l1.814,1.043a2.866,2.866,0,0,0,1.424.379h4.349a2.866,2.866,0,0,1,2.33,1.186c1,1.4,1.893,4.173-.485,8.932-3.794,7.587-2.107,26.231-2.107,26.231s-13.488-2.425-24.659,1.265c0,0,1.686-8.325,1.054-13.067s1.054-11.365,1.054-11.365l.948-4.005s-.053-3.747-3.952-1.845c0,0-.564-5.277,3.26-6.031a1.081,1.081,0,0,1,.324-.022c.818.086,4.629.362,5.85-1.7C903.068,290.749,906.126,292.541,909.075,291.172Z" transform="translate(-721.542 -246.325)"/><path class="o" d="M952.058,310.405s-3.372,2.107-8.852,0c0,0-6.007-2.2-7.9-6.533s9.588.738,9.588.738,2.425,0,3.161-.527S953.954,308.086,952.058,310.405Z" transform="translate(-753.88 -255.97)"/><path class="n" d="M904.664,258.926s-3.373,2.107-8.852,0c0,0-6.007-2.2-7.9-6.533s-6.322-9.07-6.322-9.07-7.693-2.952-7.274-5.9,8.852,3.267,8.852,3.267l3.373,3.161,10.959,9.273s2.425,0,3.161-.527S906.56,256.607,904.664,258.926Z" transform="translate(-706.487 -204.912)"/><path class="o" d="M937.49,251.988l9.062-.738a20.8,20.8,0,0,0-.946,4.292,5.79,5.79,0,0,1-8.112.22A10.3,10.3,0,0,0,937.49,251.988Z" transform="translate(-755.752 -216.311)"/><circle class="n" cx="5.795" cy="5.795" r="5.795" transform="translate(180.001 29.093)"/><path class="o" d="M934.852,220.4c-.339-.56.351-1.289.123-1.9-.209-.564-1.043-.661-1.323-1.188-.22-.425,0-.948-.088-1.417a1.456,1.456,0,0,0-1.4-1.014,4.986,4.986,0,0,0-1.805.4,6.931,6.931,0,0,1-2.974.458,3.118,3.118,0,0,1-2.456-1.558.881.881,0,0,1-.112-.428c.018-.331.322-.558.518-.822.344-.461.383-1.089.7-1.569.639-.979,2.043-.954,3.212-.959,1.719,0,3.43-.322,5.149-.265a6.413,6.413,0,0,1,4.666,1.836c1.367,1.554,1.428,3.829,1.417,5.9a3.756,3.756,0,0,1-.58,2.44c-.159.192-.353.35-.5.547-.331.441-.419,1.005-.73,1.453a3.556,3.556,0,0,1-2.586,1.118c.282-.037.048-1.926,0-2.1C935.894,220.461,935.694,220.478,934.852,220.4Z" transform="translate(-745.875 -184.254)"/><path class="q" d="M934.852,219.451c-.339-.56.351-1.289.123-1.9-.209-.564-1.043-.661-1.323-1.188-.22-.425,0-.948-.088-1.417a1.456,1.456,0,0,0-1.4-1.014,4.986,4.986,0,0,0-1.805.4,6.931,6.931,0,0,1-2.974.458,3.118,3.118,0,0,1-2.456-1.558.881.881,0,0,1-.112-.428c.018-.331.322-.558.518-.822.344-.461.383-1.089.7-1.569.639-.979,2.043-.954,3.212-.959,1.719,0,3.43-.322,5.149-.264a6.413,6.413,0,0,1,4.666,1.836c1.367,1.554,1.428,3.829,1.417,5.9a3.756,3.756,0,0,1-.58,2.44c-.159.192-.353.35-.5.547-.331.441-.419,1.005-.73,1.453a3.556,3.556,0,0,1-2.586,1.118c.282-.037.048-1.927,0-2.1C935.894,219.5,935.694,219.526,934.852,219.451Z" transform="translate(-745.875 -183.513)"/><path class="o" d="M992.3,313.738s-2.846-7.378-5.059-7.587,4.215,0,4.215,0l2.107,3.794Z" transform="translate(-794.174 -259.038)"/><path class="r" d="M993.259,313.738s-2.846-7.378-5.059-7.587,4.215,0,4.215,0l2.107,3.794Z" transform="translate(-794.923 -259.038)"/><path class="s" d="M976.65,715.119c.15,1.144.22,2.065.22,2.065.106-.633,6.639-3.478,6.639-3.478v-1.713a2.9,2.9,0,0,0-.5.024,9.4,9.4,0,0,0-3.527,1.442,32.169,32.169,0,0,1-2.835,1.66Z" transform="translate(-786.28 -575.493)"/><path class="d" d="M976.65,715.119c.15,1.144.22,2.065.22,2.065.106-.633,6.639-3.478,6.639-3.478v-1.713a2.9,2.9,0,0,0-.5.024,9.4,9.4,0,0,0-3.527,1.442,32.169,32.169,0,0,1-2.835,1.66Z" transform="translate(-786.28 -575.493)"/><path class="s" d="M904.5,713.919c1.369-.633,7.166,1.369,7.166,1.369l.586-1.995c-1.012-.2-2.017-.461-3-.765a9.987,9.987,0,0,1-1.349-.5,9.046,9.046,0,0,0-.9-.419,4.667,4.667,0,0,0-2.319-.02C904.579,713.011,904.5,713.919,904.5,713.919Z" transform="translate(-730.034 -575.073)"/><path class="d" d="M904.5,713.919c1.369-.633,7.166,1.369,7.166,1.369l.586-1.995c-1.012-.2-2.017-.461-3-.765a9.987,9.987,0,0,1-1.349-.5,9.046,9.046,0,0,0-.9-.419,4.667,4.667,0,0,0-2.319-.02C904.579,713.011,904.5,713.919,904.5,713.919Z" transform="translate(-730.034 -575.073)"/><path class="t" d="M991.423,743.926a.631.631,0,0,0,.361-.419.619.619,0,0,1-.361.734c-1.265.633-8.535,1.054-12.123-1.686v-.315C982.889,744.98,990.158,744.559,991.423,743.926Z" transform="translate(-788.346 -599.074)"/><path class="t" d="M881.666,745.088c2.2.527,10.118-.633,10.854-1.9v.315c-.738,1.265-8.641,2.425-10.854,1.9-.9-.22-1.193-.661-1.1-1.144C880.635,744.616,880.965,744.912,881.666,745.088Z" transform="translate(-711.362 -599.815)"/><path class="o" d="M912.141,402.369s-2.319-.738-2.951,0-6.04,2.469-6.04,2.469" transform="translate(-728.981 -333.864)"/><rect class="c" width="11.275" height="0.238" transform="translate(168.197 39.55) rotate(180)"/><rect class="c" width="11.275" height="0.238" transform="translate(168.197 39.788) rotate(180)"/><rect class="o" width="11.275" height="0.238" transform="translate(168.197 39.788) rotate(180)"/><rect class="c" width="11.275" height="0.238" transform="translate(168.197 40.026) rotate(180)"/><rect class="c" width="11.275" height="0.238" transform="translate(168.197 40.262) rotate(180)"/><rect class="o" width="11.275" height="0.238" transform="translate(168.197 40.262) rotate(180)"/><rect class="c" width="11.275" height="0.238" transform="translate(168.197 40.5) rotate(180)"/><rect class="c" width="11.275" height="0.238" transform="translate(168.197 40.736) rotate(180)"/><rect class="o" width="11.275" height="0.238" transform="translate(168.197 40.736) rotate(180)"/><rect class="c" width="11.275" height="0.238" transform="translate(168.197 40.974) rotate(180)"/><rect class="c" width="11.275" height="0.238" transform="translate(168.197 41.21) rotate(180)"/><rect class="o" width="11.275" height="0.238" transform="translate(168.197 41.21) rotate(180)"/><rect class="c" width="11.275" height="0.238" transform="translate(168.197 37.655) rotate(180)"/><rect class="c" width="11.275" height="0.238" transform="matrix(-0.769, -0.639, 0.639, -0.769, 173.567, 39.228)"/><rect class="c" width="11.275" height="0.238" transform="matrix(-0.769, -0.639, 0.639, -0.769, 165.663, 35.435)"/><rect class="c" width="11.275" height="0.238" transform="translate(168.197 37.891) rotate(180)"/><rect class="o" width="11.275" height="0.238" transform="translate(168.197 37.891) rotate(180)"/><rect class="c" width="11.275" height="0.238" transform="translate(168.197 38.131) rotate(180)"/><rect class="c" width="11.275" height="0.238" transform="translate(168.197 38.367) rotate(180)"/><rect class="o" width="11.275" height="0.238" transform="translate(168.197 38.367) rotate(180)"/><rect class="c" width="11.275" height="0.238" transform="translate(168.197 38.603) rotate(180)"/><rect class="c" width="11.275" height="0.238" transform="translate(168.197 38.841) rotate(180)"/><rect class="o" width="11.275" height="0.238" transform="translate(168.197 38.841) rotate(180)"/><rect class="c" width="11.275" height="0.238" transform="translate(168.197 39.076) rotate(180)"/><rect class="c" width="11.275" height="0.238" transform="translate(168.197 39.315) rotate(180)"/><rect class="o" width="11.275" height="0.238" transform="translate(168.197 39.315) rotate(180)"/><rect class="c" width="4.109" height="8.008" transform="translate(159.534 49.308) rotate(-169.48)"/><ellipse class="c" cx="1.686" cy="0.842" rx="1.686" ry="0.842" transform="translate(157.165 46.525) rotate(-79.48)"/><ellipse class="o" cx="1.686" cy="0.842" rx="1.686" ry="0.842" transform="translate(157.165 46.525) rotate(-79.48)"/><rect class="c" width="4.109" height="8.008" transform="translate(160.225 65.926) rotate(-169.48)"/><ellipse class="c" cx="1.686" cy="0.842" rx="1.686" ry="0.842" transform="translate(157.854 63.142) rotate(-79.48)"/><ellipse class="o" cx="1.686" cy="0.842" rx="1.686" ry="0.842" transform="translate(157.854 63.142) rotate(-79.48)"/><rect class="c" width="4.109" height="8.008" transform="matrix(0.476, -0.879, 0.879, 0.476, 139.618, 27.942)"/><ellipse class="c" cx="0.844" cy="1.69" rx="0.844" ry="1.69" transform="translate(142.915 28.127) rotate(-61.39)"/><ellipse class="o" cx="0.844" cy="1.69" rx="0.844" ry="1.69" transform="translate(142.915 28.127) rotate(-61.39)"/><rect class="c" width="4.109" height="8.008" transform="matrix(0.476, -0.879, 0.879, 0.476, 124.153, 99.254)"/><ellipse class="c" cx="0.842" cy="1.686" rx="0.842" ry="1.686" transform="matrix(0.476, -0.879, 0.879, 0.476, 126.746, 99.34)"/><ellipse class="o" cx="0.842" cy="1.686" rx="0.842" ry="1.686" transform="matrix(0.476, -0.879, 0.879, 0.476, 126.746, 99.34)"/><rect class="c" width="4.109" height="8.008" transform="matrix(0.476, -0.879, 0.879, 0.476, 114.692, 40.405)"/><ellipse class="c" cx="0.842" cy="1.686" rx="0.842" ry="1.686" transform="matrix(0.476, -0.879, 0.879, 0.476, 117.283, 40.487)"/><ellipse class="o" cx="0.842" cy="1.686" rx="0.842" ry="1.686" transform="matrix(0.476, -0.879, 0.879, 0.476, 117.283, 40.487)"/><rect class="c" width="4.109" height="8.008" transform="matrix(0.476, -0.879, 0.879, 0.476, 126.55, 27.941)"/><ellipse class="c" cx="0.842" cy="1.686" rx="0.842" ry="1.686" transform="matrix(0.476, -0.879, 0.879, 0.476, 129.141, 28.023)"/><ellipse class="o" cx="0.842" cy="1.686" rx="0.842" ry="1.686" transform="matrix(0.476, -0.879, 0.879, 0.476, 129.141, 28.023)"/><rect class="c" width="4.109" height="8.008" transform="matrix(0.994, -0.109, 0.109, 0.994, 136.262, 39.481)"/><ellipse class="c" cx="0.842" cy="1.686" rx="0.842" ry="1.686" transform="matrix(0.994, -0.109, 0.109, 0.994, 137.665, 41.66)"/><ellipse class="o" cx="0.842" cy="1.686" rx="0.842" ry="1.686" transform="matrix(0.994, -0.109, 0.109, 0.994, 137.665, 41.66)"/><rect class="c" width="4.109" height="8.008" transform="matrix(0.994, -0.109, 0.109, 0.994, 164.265, 83.072)"/><ellipse class="c" cx="0.842" cy="1.686" rx="0.842" ry="1.686" transform="matrix(0.994, -0.109, 0.109, 0.994, 165.67, 85.251)"/><ellipse class="o" cx="0.842" cy="1.686" rx="0.842" ry="1.686" transform="matrix(0.994, -0.109, 0.109, 0.994, 165.67, 85.251)"/><rect class="c" width="4.109" height="8.008" transform="matrix(0.476, -0.879, 0.879, 0.476, 122.397, 59.558)"/><ellipse class="c" cx="0.842" cy="1.686" rx="0.842" ry="1.686" transform="matrix(0.476, -0.879, 0.879, 0.476, 124.986, 59.643)"/><ellipse class="o" cx="0.842" cy="1.686" rx="0.842" ry="1.686" transform="matrix(0.476, -0.879, 0.879, 0.476, 124.986, 59.643)"/><rect class="c" width="4.109" height="8.008" transform="matrix(0.476, -0.879, 0.879, 0.476, 104.624, 54.482)"/><ellipse class="c" cx="0.844" cy="1.69" rx="0.844" ry="1.69" transform="translate(107.795 54.793) rotate(-61.39)"/><ellipse class="o" cx="0.844" cy="1.69" rx="0.844" ry="1.69" transform="translate(107.795 54.793) rotate(-61.39)"/><rect class="c" width="4.109" height="8.008" transform="matrix(0.476, -0.879, 0.879, 0.476, 98.932, 139.942)"/><ellipse class="c" cx="0.842" cy="1.686" rx="0.842" ry="1.686" transform="matrix(0.476, -0.879, 0.879, 0.476, 101.522, 140.025)"/><ellipse class="o" cx="0.842" cy="1.686" rx="0.842" ry="1.686" transform="matrix(0.476, -0.879, 0.879, 0.476, 101.522, 140.025)"/><rect class="c" width="4.109" height="8.008" transform="translate(95.014 141.762) rotate(-79.49)"/><rect class="u" width="4.109" height="8.008" transform="translate(95.014 141.762) rotate(-79.49)"/><ellipse class="c" cx="0.842" cy="1.686" rx="0.842" ry="1.686" transform="translate(97.506 141.044) rotate(-79.49)"/><ellipse class="o" cx="0.842" cy="1.686" rx="0.842" ry="1.686" transform="translate(97.506 141.044) rotate(-79.49)"/><rect class="c" width="4.109" height="8.008" transform="translate(95.752 144.185) rotate(-79.49)"/><ellipse class="c" cx="0.842" cy="1.686" rx="0.842" ry="1.686" transform="translate(98.242 143.466) rotate(-79.49)"/><ellipse class="o" cx="0.842" cy="1.686" rx="0.842" ry="1.686" transform="translate(98.242 143.466) rotate(-79.49)"/><rect class="c" width="4.109" height="8.008" transform="matrix(0.476, -0.879, 0.879, 0.476, 107.24, 150.328)"/><ellipse class="c" cx="0.842" cy="1.686" rx="0.842" ry="1.686" transform="matrix(0.476, -0.879, 0.879, 0.476, 109.832, 150.411)"/><ellipse class="o" cx="0.842" cy="1.686" rx="0.842" ry="1.686" transform="matrix(0.476, -0.879, 0.879, 0.476, 109.832, 150.411)"/><rect class="c" width="4.109" height="8.008" transform="translate(103.323 152.145) rotate(-79.49)"/><rect class="u" width="4.109" height="8.008" transform="translate(103.323 152.145) rotate(-79.49)"/><ellipse class="c" cx="0.842" cy="1.686" rx="0.842" ry="1.686" transform="translate(105.813 151.427) rotate(-79.49)"/><ellipse class="o" cx="0.842" cy="1.686" rx="0.842" ry="1.686" transform="translate(105.813 151.427) rotate(-79.49)"/><rect class="c" width="4.109" height="8.008" transform="translate(104.061 154.57) rotate(-79.49)"/><ellipse class="c" cx="0.842" cy="1.686" rx="0.842" ry="1.686" transform="translate(106.553 153.852) rotate(-79.49)"/><ellipse class="o" cx="0.842" cy="1.686" rx="0.842" ry="1.686" transform="translate(106.553 153.852) rotate(-79.49)"/><rect class="c" width="4.109" height="8.008" transform="matrix(0.476, -0.879, 0.879, 0.476, 119.704, 143.635)"/><ellipse class="c" cx="0.842" cy="1.686" rx="0.842" ry="1.686" transform="matrix(0.476, -0.879, 0.879, 0.476, 122.293, 143.717)"/><ellipse class="o" cx="0.842" cy="1.686" rx="0.842" ry="1.686" transform="matrix(0.476, -0.879, 0.879, 0.476, 122.293, 143.717)"/><rect class="c" width="4.109" height="8.008" transform="translate(115.787 145.453) rotate(-79.49)"/><rect class="u" width="4.109" height="8.008" transform="translate(115.787 145.453) rotate(-79.49)"/><ellipse class="c" cx="0.842" cy="1.686" rx="0.842" ry="1.686" transform="translate(118.277 144.735) rotate(-79.49)"/><ellipse class="o" cx="0.842" cy="1.686" rx="0.842" ry="1.686" transform="translate(118.277 144.735) rotate(-79.49)"/><rect class="c" width="4.109" height="8.008" transform="translate(116.524 147.878) rotate(-79.49)"/><ellipse class="c" cx="0.842" cy="1.686" rx="0.842" ry="1.686" transform="translate(119.016 147.16) rotate(-79.49)"/><ellipse class="o" cx="0.842" cy="1.686" rx="0.842" ry="1.686" transform="translate(119.016 147.16) rotate(-79.49)"/><rect class="v" width="123.14" height="14.012" transform="translate(40.203 72.81)"/><circle class="v" cx="9.767" cy="9.767" r="9.767" transform="translate(50.394 111.239)"/></g></svg>