<svg xmlns="http://www.w3.org/2000/svg" width="200.715" height="60.708" viewBox="0 0 200.715 60.708"><defs><style>.a,.e{fill:#0d4ee0;}.b{fill:#1b4ab5;}.c{fill:#e33851;}.d{fill:#cb2f2f;}.e{stroke:#0d4ee0;}.f{fill:#fff;font-size:19px;font-family:ProximaNova-Bold, Proxima Nova;font-weight:700;}</style></defs><g transform="translate(-317.434 -330.451)"><g transform="translate(318 331)"><g transform="translate(0 0)"><g transform="translate(15.834 14.636)"><g transform="translate(15.618)"><path class="a" d="M388.731,182.634v14.033a.936.936,0,0,0,.936.936h9.323l2.126,3.751a1.182,1.182,0,0,0,2.211-.583V197.6h3.181a.935.935,0,0,0,.936-.936V182.634a.935.935,0,0,0-.936-.936h-16.84A.936.936,0,0,0,388.731,182.634Z" transform="translate(-388.731 -181.699)"/><path class="b" d="M405.425,211.066V212.1a.187.187,0,0,0,.187.187h10.073a.187.187,0,0,0,.187-.187v-1.029a.187.187,0,0,0-.187-.187H405.612A.187.187,0,0,0,405.425,211.066Zm.187,5.426h11.32a.187.187,0,0,1,.187.187v1.029a.187.187,0,0,1-.187.187h-11.32a.187.187,0,0,1-.187-.187v-1.029A.187.187,0,0,1,405.612,216.492Zm0,2.807h8.2a.188.188,0,0,1,.187.187v1.029a.187.187,0,0,1-.187.187h-8.2a.187.187,0,0,1-.187-.187v-1.029A.187.187,0,0,1,405.612,219.3Zm0-5.613h13.659a.187.187,0,0,1,.187.187V214.9a.187.187,0,0,1-.187.187H405.612a.187.187,0,0,1-.187-.187v-1.029A.187.187,0,0,1,405.612,213.686Z" transform="translate(-402.968 -207.529)"/></g><g transform="translate(0 11.626)"><path class="c" d="M271.58,277.676H290.1a.936.936,0,0,1,.936.936v13.1a.936.936,0,0,1-.936.936H274.636l-1.781,3.143a1.182,1.182,0,0,1-2.211-.582V278.612A.936.936,0,0,1,271.58,277.676Z" transform="translate(-270.644 -277.676)"/><path class="d" d="M282.081,319.863h6.175a.187.187,0,0,1,.187.187v1.029a.187.187,0,0,1-.187.187h-6.175a.187.187,0,0,1-.187-.187V320.05A.187.187,0,0,1,282.081,319.863Zm-.187,2.994v1.029a.187.187,0,0,0,.187.187h9.941a.187.187,0,0,0,.187-.187v-1.029a.187.187,0,0,0-.187-.187h-9.941A.188.188,0,0,0,281.894,322.857Zm0,2.807v1.029a.187.187,0,0,0,.187.187h7.927a.187.187,0,0,0,.187-.187v-1.029a.187.187,0,0,0-.187-.187h-7.927A.187.187,0,0,0,281.894,325.663Z" transform="translate(-278.667 -315.048)"/></g></g><g transform="translate(0 0)"><g transform="translate(4.113)"><path class="e" d="M244.144,97.843a.729.729,0,0,0-.213-1.011l-.01-.007a.73.73,0,0,0-1.017.223l-2.337,3.608-.247-1.137A29.771,29.771,0,0,0,190.3,84.507a29.947,29.947,0,0,0-8.029,14.112.734.734,0,0,0,.3.79.55.55,0,0,0,.232.1.742.742,0,0,0,.891-.543,28.312,28.312,0,0,1,55.184.866l.247,1.137-3.6-2.338a.737.737,0,0,0-.8,1.234l.01.007,5.1,3.3a.731.731,0,0,0,1.018-.223Z" transform="translate(-182.248 -75.927)"/></g><g transform="translate(0 32.247)"><path class="e" d="M213.322,323.148a.738.738,0,1,0-1.433-.349,28.3,28.3,0,0,1-55.164-.852l-.247-1.137,3.6,2.338a.737.737,0,0,0,.795-1.241l-5.1-3.3a.73.73,0,0,0-1.017.223l-3.3,5.1a.729.729,0,0,0,.212,1.012l.01.007a.731.731,0,0,0,1.017-.223l2.336-3.608.247,1.137a29.63,29.63,0,0,0,12.632,18.592l.3.2a29.764,29.764,0,0,0,37.093-3.778A30.051,30.051,0,0,0,213.322,323.148Z" transform="translate(-151.338 -318.484)"/></g></g></g></g><text class="f" transform="translate(400.149 355.005)"><tspan x="0" y="0">GoodMeeting</tspan><tspan x="0" y="23">Today</tspan></text></g></svg>